<svg width="40" height="41" viewBox="0 0 40 41" fill="none" xmlns="http://www.w3.org/2000/svg">
<g id="computer">
<g id="Group">
<path id="Vector" fill-rule="evenodd" clip-rule="evenodd" d="M6 10.0437C6 8.97817 6.42143 7.95631 7.17157 7.20289C7.92172 6.44947 8.93913 6.0262 10 6.0262H30C31.0609 6.0262 32.0783 6.44947 32.8284 7.20289C33.5786 7.95631 34 8.97817 34 10.0437V26.1135C34 27.179 33.5786 28.2009 32.8284 28.9543C32.0783 29.7077 31.0609 30.131 30 30.131H25.56L25.806 31.1133L27.414 32.7283C27.6936 33.0092 27.884 33.3671 27.9612 33.7567C28.0383 34.1463 27.9987 34.5501 27.8474 34.9171C27.696 35.2841 27.4397 35.5978 27.1109 35.8185C26.7821 36.0393 26.3955 36.1571 26 36.1572H14C13.6045 36.1571 13.2179 36.0393 12.8891 35.8185C12.5603 35.5978 12.304 35.2841 12.1526 34.9171C12.0013 34.5501 11.9617 34.1463 12.0388 33.7567C12.116 33.3671 12.3064 33.0092 12.586 32.7283L14.194 31.1133L14.44 30.131H10C8.93913 30.131 7.92172 29.7077 7.17157 28.9543C6.42143 28.2009 6 27.179 6 26.1135V10.0437ZM17.542 24.1048H10V10.0437H30V24.1048H17.542Z" fill="white"/>
</g>
</g>
</svg>
