<svg width="45" height="45" viewBox="0 0 45 45" fill="none" xmlns="http://www.w3.org/2000/svg">
<rect width="45" height="45" rx="22.5" fill="white" fill-opacity="0.25"/>
<path fill-rule="evenodd" clip-rule="evenodd" d="M22.5 10C15.5937 10 10 15.5937 10 22.5C10 28.0312 13.5781 32.7031 18.5469 34.3594C19.1719 34.4688 19.4062 34.0938 19.4062 33.7656C19.4062 33.4688 19.3906 32.4844 19.3906 31.4375C16.25 32.0156 15.4375 30.6719 15.1875 29.9688C15.0469 29.6094 14.4375 28.5 13.9062 28.2031C13.4688 27.9688 12.8437 27.3906 13.8906 27.375C14.875 27.3594 15.5781 28.2812 15.8125 28.6562C16.9375 30.5469 18.7344 30.0156 19.4531 29.6875C19.5625 28.875 19.8906 28.3281 20.25 28.0156C17.4688 27.7031 14.5625 26.625 14.5625 21.8437C14.5625 20.4844 15.0469 19.3594 15.8438 18.4844C15.7188 18.1719 15.2812 16.8906 15.9688 15.1719C15.9688 15.1719 17.0156 14.8438 19.4062 16.4531C20.4062 16.1719 21.4687 16.0312 22.5312 16.0312C23.5937 16.0312 24.6562 16.1719 25.6562 16.4531C28.0469 14.8281 29.0938 15.1719 29.0938 15.1719C29.7812 16.8906 29.3438 18.1719 29.2188 18.4844C30.0156 19.3594 30.5 20.4687 30.5 21.8437C30.5 26.6406 27.5781 27.7031 24.7969 28.0156C25.25 28.4062 25.6406 29.1562 25.6406 30.3281C25.6406 32 25.625 33.3438 25.625 33.7656C25.625 34.0938 25.8594 34.4844 26.4844 34.3594C28.9658 33.5216 31.1221 31.9268 32.6496 29.7993C34.1772 27.6719 34.9993 25.119 35 22.5C35 15.5937 29.4062 10 22.5 10Z" fill="white" fill-opacity="0.5"/>
</svg>
