<svg width="45" height="45" viewBox="0 0 45 45" fill="none" xmlns="http://www.w3.org/2000/svg">
<rect width="45" height="45" rx="22.5" fill="white" fill-opacity="0.25"/>
<path d="M32.874 24.2907V31.9771H28.4177V24.8053C28.4177 23.0032 27.7729 21.774 26.1604 21.774C24.9292 21.774 24.1958 22.6032 23.874 23.4042C23.7562 23.6907 23.726 24.0896 23.726 24.4907V31.9771H19.2677C19.2677 31.9771 19.3281 19.8313 19.2677 18.5719H23.726V20.4719L23.6969 20.5157H23.726V20.4719C24.3177 19.5605 25.375 18.2573 27.7427 18.2573C30.675 18.2573 32.874 20.174 32.874 24.2907ZM14.6052 12.1105C13.0812 12.1105 12.0833 13.1105 12.0833 14.4261C12.0833 15.7126 13.0521 16.7428 14.5469 16.7428H14.576C16.1312 16.7428 17.0969 15.7126 17.0969 14.4261C17.0698 13.1105 16.1323 12.1105 14.6062 12.1105H14.6052ZM12.3479 31.9771H16.8042V18.5719H12.3479V31.9771Z" fill="white" fill-opacity="0.5"/>
</svg>
