<svg width="40" height="41" viewBox="0 0 40 41" fill="none" xmlns="http://www.w3.org/2000/svg">
<path fill-rule="evenodd" clip-rule="evenodd" d="M32.44 28.4706C34.528 20.6446 29.584 12.5615 21.462 10.376C12.29 7.90522 -0.728024 14.3211 2.16798 22.5509C3.12798 25.2727 4.97598 25.9095 8.46198 25.9597L8.67998 25.9637C10.522 25.9858 11.04 26.1064 11.196 26.3595C11.45 26.7773 11.454 27.4422 11.168 29.2721C11.032 30.1359 10.988 30.4372 10.936 30.9092C10.618 33.7837 11.102 36.0255 12.976 38.0543C18.832 44.3878 30.082 37.305 32.44 28.4706V28.4706ZM5.93998 21.2091C4.48198 17.0711 13.812 12.4731 20.426 14.2528C26.46 15.8779 30.078 21.7936 28.576 27.4281C26.9 33.7114 19.012 38.677 15.908 35.3184C14.948 34.2819 14.71 33.1731 14.912 31.3512C14.954 30.9615 14.994 30.6923 15.12 29.8928C15.558 27.0866 15.552 25.805 14.604 24.2563C13.416 22.3139 12.004 21.9864 8.72998 21.9443L8.51798 21.9402C6.58998 21.9141 6.13198 21.7554 5.93798 21.2091H5.93998Z" fill="white"/>
<path d="M12 20.524C11.337 20.524 10.7011 20.2595 10.2322 19.7886C9.76339 19.3177 9.5 18.679 9.5 18.0131C9.5 17.3472 9.76339 16.7085 10.2322 16.2376C10.7011 15.7667 11.337 15.5022 12 15.5022C12.663 15.5022 13.2989 15.7667 13.7678 16.2376C14.2366 16.7085 14.5 17.3472 14.5 18.0131C14.5 18.679 14.2366 19.3177 13.7678 19.7886C13.2989 20.2595 12.663 20.524 12 20.524V20.524Z" fill="white"/>
<path d="M19.5 20.524C18.837 20.524 18.2011 20.2595 17.7322 19.7886C17.2634 19.3177 17 18.679 17 18.0131C17 17.3472 17.2634 16.7085 17.7322 16.2376C18.2011 15.7667 18.837 15.5022 19.5 15.5022C20.163 15.5022 20.7989 15.7667 21.2678 16.2376C21.7366 16.7085 22 17.3472 22 18.0131C22 18.679 21.7366 19.3177 21.2678 19.7886C20.7989 20.2595 20.163 20.524 19.5 20.524Z" fill="white"/>
<path d="M24.5 26.5502C23.837 26.5502 23.2011 26.2857 22.7322 25.8148C22.2634 25.3439 22 24.7052 22 24.0393C22 23.3734 22.2634 22.7347 22.7322 22.2638C23.2011 21.7929 23.837 21.5284 24.5 21.5284C25.163 21.5284 25.7989 21.7929 26.2678 22.2638C26.7366 22.7347 27 23.3734 27 24.0393C27 24.7052 26.7366 25.3439 26.2678 25.8148C25.7989 26.2857 25.163 26.5502 24.5 26.5502Z" fill="white"/>
<path d="M21.5 33.5808C20.837 33.5808 20.2011 33.3162 19.7322 32.8454C19.2634 32.3745 19 31.7358 19 31.0699C19 30.4039 19.2634 29.7653 19.7322 29.2944C20.2011 28.8235 20.837 28.559 21.5 28.559C22.163 28.559 22.7989 28.8235 23.2678 29.2944C23.7366 29.7653 24 30.4039 24 31.0699C24 31.7358 23.7366 32.3745 23.2678 32.8454C22.7989 33.3162 22.163 33.5808 21.5 33.5808V33.5808Z" fill="white"/>
<path d="M28.74 7.67824C28.9771 7.55063 29.2375 7.47239 29.5054 7.4482C29.7734 7.42401 30.0434 7.45436 30.2994 7.53744C30.5554 7.62052 30.7921 7.75462 30.9953 7.93172C31.1985 8.10881 31.364 8.32526 31.482 8.56811L39.668 25.4415C39.8047 25.7448 39.8212 26.089 39.7143 26.4041C39.6073 26.7192 39.3849 26.9816 39.0923 27.1379C38.7996 27.2942 38.4587 27.3327 38.1387 27.2456C37.8188 27.1584 37.5439 26.9522 37.37 26.6688L27.954 10.4583C27.8186 10.2251 27.7316 9.96688 27.698 9.69907C27.6644 9.43125 27.6851 9.15939 27.7586 8.89977C27.8322 8.64016 27.9573 8.39814 28.1262 8.18824C28.2952 7.97834 28.5047 7.80487 28.742 7.67824H28.74Z" fill="white"/>
<path fill-rule="evenodd" clip-rule="evenodd" d="M25.0739 7.43515C26.0479 9.27314 27.6859 9.78737 29.27 8.9417C30.852 8.09803 31.346 6.44484 30.372 4.60685C29.2599 2.5017 26.8759 0.5934 25.2959 1.43506C23.7159 2.27873 23.9599 5.32999 25.0759 7.43515H25.0739ZM26.8399 6.49104C26.4858 5.77681 26.2687 5.00201 26.1999 4.20711C26.1702 3.8748 26.1823 3.54005 26.2359 3.21078L26.2719 3.22886C26.3719 3.27707 26.6819 3.4217 27.0779 3.73908C27.6819 4.22318 28.282 4.93628 28.606 5.54895C29.064 6.4127 28.9339 6.84659 28.3299 7.16999C27.7299 7.49139 27.2979 7.3548 26.8399 6.49305V6.49104Z" fill="white"/>
</svg>
