<svg width="45" height="45" viewBox="0 0 45 45" fill="none" xmlns="http://www.w3.org/2000/svg">
<rect width="45" height="45" rx="22.5" fill="white" fill-opacity="0.25"/>
<path d="M34.4793 16.7781C34.3377 16.2732 34.062 15.816 33.6814 15.4552C33.29 15.0833 32.8103 14.8173 32.2876 14.6823C30.3314 14.1667 22.4939 14.1667 22.4939 14.1667C19.2265 14.1295 15.96 14.293 12.7126 14.6562C12.1899 14.8013 11.7111 15.0732 11.3189 15.4479C10.9335 15.8187 10.6543 16.276 10.5085 16.7771C10.1581 18.6643 9.98793 20.5806 10.0001 22.5C9.98763 24.4177 10.1574 26.3333 10.5085 28.2229C10.6512 28.7219 10.9293 29.1771 11.3158 29.5448C11.7022 29.9125 12.1835 30.1781 12.7126 30.3188C14.6949 30.8333 22.4939 30.8333 22.4939 30.8333C25.7654 30.8706 29.0361 30.7071 32.2876 30.3438C32.8103 30.2087 33.29 29.9427 33.6814 29.5708C34.0668 29.2031 34.3408 28.7458 34.4783 28.2479C34.8377 26.3614 35.0125 24.4444 35.0001 22.524C35.0272 20.5954 34.8526 18.6693 34.4793 16.7771V16.7781ZM20.0022 26.0667V18.9344L26.523 22.501L20.0022 26.0667Z" fill="white" fill-opacity="0.5"/>
</svg>
