<svg width="5000" height="2812" viewBox="0 0 5000 2812" fill="none" xmlns="http://www.w3.org/2000/svg">
<rect width="5000" height="2811.33" fill="white"/>
<path d="M667 1242.58C657 1242.58 647.5 1239.92 638.5 1234.58C629.833 1229.25 625.5 1222.42 625.5 1214.08C625.5 1209.75 626.167 1205.08 627.5 1200.08C629.167 1195.08 630.667 1190.42 632 1186.08C642.333 1154.42 652 1124.92 661 1097.58C670 1069.92 679 1043.42 688 1018.08C697.333 992.415 707 966.749 717 941.082C727.333 915.415 738.833 888.582 751.5 860.582C738.833 863.249 728 866.749 719 871.082C710 875.082 702.667 878.749 697 882.082C691.333 885.082 687.167 886.582 684.5 886.582C682.833 886.582 680.333 885.415 677 883.082C674 880.749 671.333 878.082 669 875.082C666.667 872.082 665.5 869.415 665.5 867.082C674.833 863.082 685.667 858.915 698 854.582C710.667 850.249 724.333 846.582 739 843.582C753.667 840.582 768.333 839.082 783 839.082C798.667 839.082 814.667 841.249 831 845.582C847.333 849.582 862.333 855.749 876 864.082C890 872.082 901.167 882.249 909.5 894.582C918.167 906.582 922.5 920.749 922.5 937.082C922.5 954.749 918.5 969.915 910.5 982.582C902.5 995.249 891.833 1005.92 878.5 1014.58C865.5 1023.25 851.333 1030.25 836 1035.58C820.667 1040.92 805.333 1044.92 790 1047.58C775 1050.25 761.5 1052.08 749.5 1053.08C737.5 1054.08 728.5 1054.58 722.5 1054.58H719.5C710.167 1087.58 701 1120.58 692 1153.58C683 1186.25 674.667 1215.92 667 1242.58ZM724 1039.08C742.667 1037.75 761.333 1034.58 780 1029.58C798.667 1024.58 815.5 1017.75 830.5 1009.08C845.833 1000.08 858 988.915 867 975.582C876.333 962.249 881 946.749 881 929.082C881 912.415 876.5 898.915 867.5 888.582C858.833 878.249 847.5 870.415 833.5 865.082C819.833 859.749 805.333 856.915 790 856.582C778 879.915 766.5 907.582 755.5 939.582C744.5 971.249 734 1004.42 724 1039.08ZM896.172 1339.08C887.839 1339.08 880.005 1336.42 872.672 1331.08C865.672 1326.08 862.172 1317.92 862.172 1306.58C862.172 1295.92 865.339 1286.25 871.672 1277.58C878.005 1269.25 886.172 1261.42 896.172 1254.08C906.172 1247.08 916.839 1240.58 928.172 1234.58C939.839 1228.92 951.005 1223.58 961.672 1218.58C965.339 1208.92 969.339 1196.75 973.672 1182.08C978.339 1167.08 982.339 1153.25 985.672 1140.58C975.339 1154.92 964.339 1167.58 952.672 1178.58C941.005 1189.58 928.005 1195.08 913.672 1195.08C907.672 1195.08 901.339 1193.92 894.672 1191.58C888.005 1188.92 882.339 1184.58 877.672 1178.58C873.339 1172.25 871.172 1163.92 871.172 1153.58C871.172 1144.92 872.672 1134.42 875.672 1122.08C879.005 1109.75 883.005 1097.75 887.672 1086.08C892.672 1074.08 897.839 1064.25 903.172 1056.58C908.505 1048.58 913.172 1044.58 917.172 1044.58C919.172 1044.58 922.005 1045.42 925.672 1047.08C929.672 1048.42 933.505 1050.42 937.172 1053.08C940.839 1055.42 943.172 1058.08 944.172 1061.08C941.172 1065.08 937.839 1070.92 934.172 1078.58C930.505 1085.92 927.005 1094.25 923.672 1103.58C920.339 1112.58 917.505 1121.42 915.172 1130.08C913.172 1138.75 912.172 1146.25 912.172 1152.58C912.172 1157.58 913.172 1161.92 915.172 1165.58C917.172 1169.25 921.005 1171.08 926.672 1171.08C934.005 1171.08 941.505 1168.08 949.172 1162.08C957.172 1156.08 964.839 1148.42 972.172 1139.08C979.839 1129.75 986.672 1120.25 992.672 1110.58C993.339 1108.25 994.005 1104.58 994.672 1099.58C995.339 1094.58 996.505 1089.42 998.172 1084.08C999.839 1078.42 1002.67 1073.25 1006.67 1068.58C1011.01 1063.92 1017.01 1061.58 1024.67 1061.58C1027.34 1061.58 1029.84 1061.75 1032.17 1062.08C1034.51 1062.42 1037.34 1062.92 1040.67 1063.58C1040.67 1068.58 1038.84 1078.42 1035.17 1093.08C1031.84 1107.42 1027.34 1124.08 1021.67 1143.08C1016.01 1162.08 1009.67 1181.08 1002.67 1200.08C1016.67 1194.42 1031.17 1185.08 1046.17 1172.08C1061.51 1158.75 1073.84 1139.92 1083.17 1115.58L1091.67 1122.58C1086.67 1139.25 1079.01 1153.75 1068.67 1166.08C1058.67 1178.42 1047.34 1188.92 1034.67 1197.58C1022.01 1206.25 1009.17 1213.42 996.172 1219.08C987.172 1240.75 977.339 1260.75 966.672 1279.08C956.339 1297.42 945.339 1311.92 933.672 1322.58C922.005 1333.58 909.505 1339.08 896.172 1339.08ZM891.172 1320.58C897.505 1320.58 906.339 1313.92 917.672 1300.58C929.005 1287.25 940.505 1267.25 952.172 1240.58C941.505 1245.92 930.672 1252.08 919.672 1259.08C909.005 1266.42 900.005 1274.08 892.672 1282.08C885.339 1290.08 881.672 1298.25 881.672 1306.58C881.672 1309.92 882.339 1313.08 883.672 1316.08C885.339 1319.08 887.839 1320.58 891.172 1320.58ZM1119.87 1222.08C1104.2 1222.08 1091.7 1217.75 1082.37 1209.08C1073.37 1200.42 1068.87 1187.42 1068.87 1170.08C1068.87 1160.42 1070.2 1148.92 1072.87 1135.58C1075.53 1122.25 1079.03 1108.08 1083.37 1093.08C1088.03 1077.75 1093.03 1062.75 1098.37 1048.08C1095.37 1047.08 1092.53 1046.25 1089.87 1045.58C1087.53 1044.58 1084.37 1043.25 1080.37 1041.58V1026.08C1086.37 1027.08 1090.87 1028.08 1093.87 1029.08C1096.87 1029.75 1100.53 1030.42 1104.87 1031.08C1114.2 1007.42 1124.2 985.582 1134.87 965.582C1145.53 945.582 1155.87 929.582 1165.87 917.582C1175.87 905.582 1184.53 899.582 1191.87 899.582C1195.53 899.582 1198.87 900.915 1201.87 903.582C1204.87 906.249 1206.37 909.249 1206.37 912.582C1206.37 916.582 1204.37 923.082 1200.37 932.082C1196.37 941.082 1191.2 951.249 1184.87 962.582C1178.87 973.582 1172.7 984.582 1166.37 995.582C1160.37 1006.58 1154.87 1016.08 1149.87 1024.08C1145.2 1032.08 1142.37 1037.25 1141.37 1039.58C1150.03 1040.92 1158.03 1042.08 1165.37 1043.08C1172.7 1043.75 1180.03 1044.08 1187.37 1044.08C1197.03 1044.08 1207.03 1043.42 1217.37 1042.08C1227.7 1040.75 1239.2 1038.92 1251.87 1036.58C1260.87 1012.58 1270.87 989.082 1281.87 966.082C1292.87 942.749 1304.03 921.915 1315.37 903.582C1327.03 884.915 1338.03 870.082 1348.37 859.082C1359.03 847.749 1368.37 842.082 1376.37 842.082C1383.03 842.082 1388.2 845.915 1391.87 853.582C1395.53 860.915 1397.37 868.915 1397.37 877.582C1397.37 888.582 1394.53 901.915 1388.87 917.582C1383.2 933.249 1375.37 949.415 1365.37 966.082C1355.37 982.749 1343.53 998.415 1329.87 1013.08C1316.53 1027.75 1302.03 1039.58 1286.37 1048.58C1282.03 1058.58 1278.03 1071.08 1274.37 1086.08C1271.03 1100.75 1268.37 1115.08 1266.37 1129.08C1264.37 1143.08 1263.37 1154.25 1263.37 1162.58C1271.37 1141.58 1280.37 1122.25 1290.37 1104.58C1300.37 1086.92 1311.53 1072.75 1323.87 1062.08C1336.53 1051.42 1350.2 1046.08 1364.87 1046.08C1380.2 1046.08 1391.37 1051.25 1398.37 1061.58C1405.37 1071.58 1408.87 1082.58 1408.87 1094.58C1408.87 1104.25 1407.03 1114.08 1403.37 1124.08C1400.03 1133.75 1396.53 1143.08 1392.87 1152.08C1389.53 1160.75 1387.87 1168.58 1387.87 1175.58C1387.87 1181.58 1389.2 1185.75 1391.87 1188.08C1394.87 1190.42 1398.03 1191.58 1401.37 1191.58C1408.7 1191.58 1417.2 1187.92 1426.87 1180.58C1436.87 1172.92 1446.53 1162.92 1455.87 1150.58C1465.53 1138.25 1473.53 1125.08 1479.87 1111.08L1489.37 1120.08C1482.03 1136.75 1473.2 1152.08 1462.87 1166.08C1452.53 1180.08 1441.03 1191.08 1428.37 1199.08C1416.03 1207.42 1402.87 1211.58 1388.87 1211.58C1376.2 1211.58 1366.37 1208.25 1359.37 1201.58C1352.7 1194.92 1349.37 1186.58 1349.37 1176.58C1349.37 1169.58 1350.53 1162.08 1352.87 1154.08C1355.53 1145.75 1358.03 1137.25 1360.37 1128.58C1362.7 1119.92 1363.87 1111.92 1363.87 1104.58C1363.87 1096.92 1362.2 1091.42 1358.87 1088.08C1355.87 1084.75 1351.7 1083.08 1346.37 1083.08C1338.37 1083.08 1331.03 1086.42 1324.37 1093.08C1318.03 1099.42 1312.2 1107.75 1306.87 1118.08C1301.53 1128.42 1296.53 1139.42 1291.87 1151.08C1287.2 1162.42 1282.53 1173.25 1277.87 1183.58C1273.53 1193.92 1268.87 1202.25 1263.87 1208.58C1259.2 1215.25 1254.03 1218.58 1248.37 1218.58C1243.37 1218.58 1239.2 1216.08 1235.87 1211.08C1232.87 1206.08 1230.37 1200.08 1228.37 1193.08C1226.37 1186.08 1225.03 1179.25 1224.37 1172.58C1223.7 1165.58 1223.37 1160.25 1223.37 1156.58C1210.03 1175.92 1194.37 1191.58 1176.37 1203.58C1158.7 1215.92 1139.87 1222.08 1119.87 1222.08ZM1134.37 1197.08C1151.03 1197.08 1167.7 1189.92 1184.37 1175.58C1201.37 1160.92 1216.03 1140.92 1228.37 1115.58C1230.37 1105.58 1232.53 1096.08 1234.87 1087.08C1237.2 1078.08 1240.2 1068.25 1243.87 1057.58C1233.87 1059.58 1224.2 1061.08 1214.87 1062.08C1205.53 1063.08 1196.37 1063.58 1187.37 1063.58C1178.37 1063.58 1169.37 1063.08 1160.37 1062.08C1151.37 1061.08 1142.2 1059.75 1132.87 1058.08C1125.53 1074.42 1119.53 1090.92 1114.87 1107.58C1110.2 1124.25 1107.87 1141.25 1107.87 1158.58C1107.87 1172.25 1109.7 1182.08 1113.37 1188.08C1117.37 1194.08 1124.37 1197.08 1134.37 1197.08ZM1296.37 1017.08C1306.03 1008.75 1315.03 999.415 1323.37 989.082C1331.7 978.749 1339.03 968.249 1345.37 957.582C1352.03 946.582 1357.53 936.249 1361.87 926.582C1366.53 916.582 1369.7 907.915 1371.37 900.582C1372.37 895.915 1372.87 892.249 1372.87 889.582C1370.2 890.249 1365.87 893.915 1359.87 900.582C1354.2 907.249 1347.53 916.415 1339.87 928.082C1332.2 939.415 1324.53 952.749 1316.87 968.082C1309.2 983.082 1302.37 999.415 1296.37 1017.08ZM1500.87 1215.08C1485.88 1215.08 1475.54 1210.08 1469.88 1200.08C1464.54 1190.42 1461.87 1179.75 1461.87 1168.08C1461.87 1157.42 1463.54 1146.58 1466.87 1135.58C1470.21 1124.25 1474.71 1113.75 1480.38 1104.08C1486.38 1094.42 1492.88 1086.75 1499.88 1081.08C1507.21 1075.08 1514.54 1072.08 1521.88 1072.08C1524.21 1072.08 1526.88 1072.58 1529.88 1073.58C1533.21 1074.25 1535.54 1075.42 1536.88 1077.08C1532.88 1082.08 1528.71 1088.25 1524.38 1095.58C1520.38 1102.92 1516.54 1110.75 1512.88 1119.08C1509.54 1127.08 1506.88 1135.25 1504.88 1143.58C1502.88 1151.92 1501.88 1159.58 1501.88 1166.58C1501.88 1173.25 1503.04 1178.75 1505.38 1183.08C1508.04 1187.42 1512.54 1189.58 1518.88 1189.58C1525.21 1189.58 1532.71 1186.08 1541.37 1179.08C1550.38 1171.75 1558.88 1163.42 1566.88 1154.08C1556.21 1144.42 1548.54 1133.92 1543.88 1122.58C1539.21 1110.92 1536.88 1096.92 1536.88 1080.58C1536.88 1073.58 1538.54 1065.58 1541.88 1056.58C1545.54 1047.58 1551.21 1039.75 1558.88 1033.08C1566.88 1026.42 1577.54 1023.08 1590.88 1023.08C1605.21 1023.08 1615.21 1027.08 1620.88 1035.08C1626.88 1043.08 1629.88 1052.58 1629.88 1063.58C1629.88 1075.92 1626.54 1089.75 1619.88 1105.08C1613.54 1120.42 1605.88 1134.92 1596.88 1148.58C1600.88 1150.58 1605.54 1151.58 1610.88 1151.58C1615.88 1151.58 1621.88 1150.42 1628.88 1148.08C1635.88 1145.75 1642.71 1141.92 1649.38 1136.58C1656.04 1130.92 1661.38 1123.42 1665.38 1114.08L1674.38 1120.58C1667.04 1137.58 1657.21 1150.08 1644.88 1158.08C1632.88 1165.75 1621.04 1169.58 1609.38 1169.58C1605.04 1169.58 1600.71 1169.25 1596.37 1168.58C1592.04 1167.58 1588.04 1166.42 1584.38 1165.08C1573.04 1178.42 1560.04 1190.08 1545.38 1200.08C1530.71 1210.08 1515.88 1215.08 1500.87 1215.08ZM1579.88 1138.08C1587.88 1126.42 1594.71 1113.92 1600.38 1100.58C1606.04 1087.25 1608.88 1074.92 1608.88 1063.58C1608.88 1055.92 1607.71 1050.42 1605.38 1047.08C1603.04 1043.42 1599.54 1041.58 1594.88 1041.58C1588.54 1041.58 1582.04 1046.08 1575.38 1055.08C1568.71 1064.08 1565.38 1075.42 1565.38 1089.08C1565.38 1096.08 1566.54 1104.58 1568.88 1114.58C1571.54 1124.58 1575.21 1132.42 1579.88 1138.08ZM1822.41 1209.08C1809.41 1209.08 1799.41 1205.75 1792.41 1199.08C1785.74 1192.75 1782.41 1184.58 1782.41 1174.58C1782.41 1167.92 1783.58 1160.92 1785.91 1153.58C1788.24 1145.92 1790.58 1138.25 1792.91 1130.58C1795.24 1122.92 1796.41 1115.58 1796.41 1108.58C1796.41 1101.25 1794.58 1096.25 1790.91 1093.58C1787.58 1090.58 1783.58 1089.08 1778.91 1089.08C1768.91 1089.08 1758.58 1093.25 1747.91 1101.58C1737.58 1109.58 1727.41 1119.75 1717.41 1132.08C1707.74 1144.42 1698.58 1157.25 1689.91 1170.58C1681.24 1183.92 1673.74 1195.92 1667.41 1206.58C1661.08 1206.58 1655.08 1205.42 1649.41 1203.08C1643.74 1201.08 1638.91 1197.42 1634.91 1192.08C1635.24 1190.42 1637.24 1185.42 1640.91 1177.08C1644.24 1168.42 1648.08 1158.25 1652.41 1146.58C1656.74 1134.58 1660.58 1122.08 1663.91 1109.08C1667.24 1096.08 1668.91 1084.25 1668.91 1073.58C1671.24 1070.92 1674.74 1068.25 1679.41 1065.58C1684.41 1062.92 1689.58 1061.58 1694.91 1061.58C1706.58 1061.58 1712.41 1066.58 1712.41 1076.58C1712.41 1080.58 1711.58 1086.58 1709.91 1094.58C1708.58 1102.25 1706.58 1111.08 1703.91 1121.08C1712.58 1109.42 1722.08 1098.42 1732.41 1088.08C1742.74 1077.75 1753.41 1069.42 1764.41 1063.08C1775.74 1056.42 1787.08 1053.08 1798.41 1053.08C1812.74 1053.08 1823.24 1057.92 1829.91 1067.58C1836.91 1077.25 1840.41 1087.92 1840.41 1099.58C1840.41 1109.58 1838.74 1118.92 1835.41 1127.58C1832.08 1136.25 1828.74 1144.42 1825.41 1152.08C1822.41 1159.75 1820.91 1167.25 1820.91 1174.58C1820.91 1179.92 1822.08 1183.75 1824.41 1186.08C1827.08 1188.08 1829.91 1189.08 1832.91 1189.08C1840.91 1189.08 1849.24 1185.25 1857.91 1177.58C1866.58 1169.92 1874.74 1160.25 1882.41 1148.58C1890.41 1136.58 1897.41 1124.58 1903.41 1112.58L1911.91 1119.58C1904.91 1135.92 1896.91 1150.92 1887.91 1164.58C1879.24 1177.92 1869.41 1188.75 1858.41 1197.08C1847.74 1205.08 1835.74 1209.08 1822.41 1209.08Z" fill="#FE3C3C"/>
<path d="M2115.62 1242.58C2103.95 1242.58 2092.79 1240.92 2082.12 1237.58C2071.79 1234.58 2062.79 1227.92 2055.12 1217.58C2056.12 1209.58 2058.45 1197.92 2062.12 1182.58C2066.12 1167.25 2070.95 1149.92 2076.62 1130.58C2082.29 1110.92 2088.29 1090.75 2094.62 1070.08C2100.95 1049.42 2107.12 1029.75 2113.12 1011.08C2119.45 992.082 2124.95 975.582 2129.62 961.582C2134.62 947.249 2138.29 936.915 2140.62 930.582C2141.62 927.915 2143.29 923.915 2145.62 918.582C2147.95 913.249 2150.95 907.749 2154.62 902.082C2158.29 896.415 2162.45 891.749 2167.12 888.082C2172.12 884.082 2177.45 882.082 2183.12 882.082C2188.79 882.082 2195.12 884.415 2202.12 889.082C2191.79 912.415 2181.29 938.415 2170.62 967.082C2160.29 995.415 2150.29 1024.75 2140.62 1055.08C2131.29 1085.08 2122.62 1114.42 2114.62 1143.08C2106.95 1171.42 2100.62 1197.42 2095.62 1221.08C2098.29 1222.08 2101.95 1222.75 2106.62 1223.08C2111.62 1223.75 2116.29 1224.08 2120.62 1224.08C2142.29 1224.08 2162.95 1218.75 2182.62 1208.08C2202.29 1197.75 2220.29 1183.92 2236.62 1166.58C2253.29 1148.92 2267.79 1129.25 2280.12 1107.58C2292.45 1085.58 2301.95 1063.08 2308.62 1040.08C2315.29 1017.08 2318.62 995.082 2318.62 974.082C2318.62 947.082 2313.95 925.249 2304.62 908.582C2295.62 891.582 2283.12 879.249 2267.12 871.582C2251.12 863.582 2232.79 859.582 2212.12 859.582C2190.45 859.582 2170.95 863.582 2153.62 871.582C2136.29 879.249 2122.62 889.915 2112.62 903.582C2102.95 916.915 2098.12 932.249 2098.12 949.582C2098.12 953.249 2098.45 957.249 2099.12 961.582C2099.79 965.582 2100.95 969.582 2102.62 973.582C2088.29 973.582 2077.95 970.582 2071.62 964.582C2065.62 958.249 2062.62 950.582 2062.62 941.582C2062.62 929.915 2066.79 918.082 2075.12 906.082C2083.79 894.082 2095.62 883.082 2110.62 873.082C2125.95 862.749 2143.62 854.582 2163.62 848.582C2183.62 842.249 2205.29 839.082 2228.62 839.082C2261.29 839.082 2287.45 845.415 2307.12 858.082C2326.79 870.415 2340.95 887.249 2349.62 908.582C2358.62 929.582 2363.12 953.082 2363.12 979.082C2363.12 1007.75 2358.45 1035.25 2349.12 1061.58C2340.12 1087.58 2327.45 1111.58 2311.12 1133.58C2295.12 1155.58 2276.45 1174.75 2255.12 1191.08C2234.12 1207.42 2211.62 1220.08 2187.62 1229.08C2163.95 1238.08 2139.95 1242.58 2115.62 1242.58ZM2385.04 1222.58C2374.04 1222.58 2364.54 1218.92 2356.54 1211.58C2348.2 1204.25 2344.04 1193.25 2344.04 1178.58C2344.04 1166.92 2346.7 1154.25 2352.04 1140.58C2357.37 1126.92 2364.7 1113.42 2374.04 1100.08C2383.37 1086.75 2394.04 1074.75 2406.04 1064.08C2418.04 1053.08 2430.87 1044.25 2444.54 1037.58C2458.2 1030.92 2471.87 1027.58 2485.54 1027.58C2499.87 1027.58 2512.04 1031.25 2522.04 1038.58C2532.04 1045.92 2537.04 1055.58 2537.04 1067.58C2537.04 1076.58 2533.87 1083.08 2527.54 1087.08C2521.2 1091.08 2513.7 1092.25 2505.04 1090.58C2505.7 1087.58 2506.2 1084.58 2506.54 1081.58C2507.2 1078.58 2507.54 1075.42 2507.54 1072.08C2507.54 1065.42 2506.2 1059.42 2503.54 1054.08C2500.87 1048.75 2495.2 1046.08 2486.54 1046.08C2477.2 1046.08 2467.7 1049.25 2458.04 1055.58C2448.37 1061.92 2439.04 1070.25 2430.04 1080.58C2421.37 1090.58 2413.54 1101.75 2406.54 1114.08C2399.54 1126.08 2394.04 1137.92 2390.04 1149.58C2386.04 1161.25 2384.04 1171.75 2384.04 1181.08C2384.04 1191.75 2387.87 1197.08 2395.54 1197.08C2403.2 1197.08 2411.7 1193.42 2421.04 1186.08C2430.37 1178.42 2439.7 1168.92 2449.04 1157.58C2458.7 1146.25 2467.87 1134.75 2476.54 1123.08C2485.2 1111.08 2492.7 1100.92 2499.04 1092.58C2500.04 1090.92 2501.37 1090.08 2503.04 1090.08C2504.37 1090.42 2506.87 1091.25 2510.54 1092.58C2514.54 1093.58 2518.2 1095.25 2521.54 1097.58C2524.87 1099.92 2526.54 1102.92 2526.54 1106.58C2526.54 1109.92 2525.04 1114.25 2522.04 1119.58C2519.37 1124.58 2516.04 1130.25 2512.04 1136.58C2508.37 1142.58 2505.04 1148.75 2502.04 1155.08C2499.37 1161.08 2498.04 1166.92 2498.04 1172.58C2498.04 1176.92 2499.2 1181.08 2501.54 1185.08C2503.87 1188.75 2507.7 1190.58 2513.04 1190.58C2521.04 1190.58 2532.2 1184.75 2546.54 1173.08C2561.2 1161.08 2576.04 1140.92 2591.04 1112.58L2600.54 1122.08C2592.54 1140.08 2582.87 1156.08 2571.54 1170.08C2560.54 1183.75 2548.87 1194.42 2536.54 1202.08C2524.2 1210.08 2511.7 1214.08 2499.04 1214.08C2485.37 1214.08 2475.2 1209.75 2468.54 1201.08C2461.87 1192.42 2458.2 1183.08 2457.54 1173.08C2457.54 1172.42 2457.54 1171.92 2457.54 1171.58C2457.54 1171.25 2457.54 1170.92 2457.54 1170.58C2444.2 1186.58 2431.87 1199.25 2420.54 1208.58C2409.54 1217.92 2397.7 1222.58 2385.04 1222.58ZM2624.7 1222.08C2610.04 1222.08 2598.2 1217.75 2589.2 1209.08C2580.2 1200.42 2575.7 1187.25 2575.7 1169.58C2575.7 1155.92 2578.2 1138.92 2583.2 1118.58C2588.54 1098.25 2595.2 1077.25 2603.2 1055.58C2600.87 1054.92 2598.04 1054.42 2594.7 1054.08C2591.7 1053.42 2588.7 1052.42 2585.7 1051.08V1035.58C2591.04 1036.25 2595.37 1036.75 2598.7 1037.08C2602.37 1037.42 2606.04 1037.75 2609.7 1038.08C2616.7 1020.42 2624.2 1003.42 2632.2 987.082C2640.54 970.415 2648.7 955.582 2656.7 942.582C2665.04 929.582 2672.87 919.415 2680.2 912.082C2687.54 904.415 2694.04 900.582 2699.7 900.582C2703.04 900.582 2706.2 901.915 2709.2 904.582C2712.2 906.915 2713.7 910.415 2713.7 915.082C2713.7 921.749 2710.2 931.249 2703.2 943.582C2696.54 955.915 2688.2 970.415 2678.2 987.082C2668.2 1003.42 2658.54 1020.92 2649.2 1039.58C2651.87 1039.58 2654.54 1039.58 2657.2 1039.58C2659.87 1039.58 2662.37 1039.58 2664.7 1039.58C2679.37 1039.58 2692.54 1039.42 2704.2 1039.08C2716.2 1038.42 2728.37 1037.42 2740.7 1036.08V1052.58C2722.37 1054.25 2705.54 1055.58 2690.2 1056.58C2674.87 1057.58 2660.2 1058.25 2646.2 1058.58C2645.2 1058.58 2644.2 1058.58 2643.2 1058.58C2642.2 1058.58 2641.2 1058.58 2640.2 1058.58C2633.2 1074.92 2627.04 1091.75 2621.7 1109.08C2616.7 1126.08 2614.2 1142.75 2614.2 1159.08C2614.2 1172.75 2616.37 1182.42 2620.7 1188.08C2625.04 1193.75 2631.87 1196.58 2641.2 1196.58C2657.87 1196.58 2674.87 1189.08 2692.2 1174.08C2709.87 1158.75 2725.2 1138.08 2738.2 1112.08L2745.2 1117.08C2736.54 1136.75 2725.7 1154.58 2712.7 1170.58C2700.04 1186.58 2686.2 1199.08 2671.2 1208.08C2656.2 1217.42 2640.7 1222.08 2624.7 1222.08ZM2751.25 1222.58C2740.25 1222.58 2730.75 1218.92 2722.75 1211.58C2714.41 1204.25 2710.25 1193.25 2710.25 1178.58C2710.25 1166.92 2712.91 1154.25 2718.25 1140.58C2723.58 1126.92 2730.91 1113.42 2740.25 1100.08C2749.58 1086.75 2760.25 1074.75 2772.25 1064.08C2784.25 1053.08 2797.08 1044.25 2810.75 1037.58C2824.41 1030.92 2838.08 1027.58 2851.75 1027.58C2866.08 1027.58 2878.25 1031.25 2888.25 1038.58C2898.25 1045.92 2903.25 1055.58 2903.25 1067.58C2903.25 1076.58 2900.08 1083.08 2893.75 1087.08C2887.41 1091.08 2879.91 1092.25 2871.25 1090.58C2871.91 1087.58 2872.41 1084.58 2872.75 1081.58C2873.41 1078.58 2873.75 1075.42 2873.75 1072.08C2873.75 1065.42 2872.41 1059.42 2869.75 1054.08C2867.08 1048.75 2861.41 1046.08 2852.75 1046.08C2843.41 1046.08 2833.91 1049.25 2824.25 1055.58C2814.58 1061.92 2805.25 1070.25 2796.25 1080.58C2787.58 1090.58 2779.75 1101.75 2772.75 1114.08C2765.75 1126.08 2760.25 1137.92 2756.25 1149.58C2752.25 1161.25 2750.25 1171.75 2750.25 1181.08C2750.25 1191.75 2754.08 1197.08 2761.75 1197.08C2769.41 1197.08 2777.91 1193.42 2787.25 1186.08C2796.58 1178.42 2805.91 1168.92 2815.25 1157.58C2824.91 1146.25 2834.08 1134.75 2842.75 1123.08C2851.41 1111.08 2858.91 1100.92 2865.25 1092.58C2866.25 1090.92 2867.58 1090.08 2869.25 1090.08C2870.58 1090.42 2873.08 1091.25 2876.75 1092.58C2880.75 1093.58 2884.41 1095.25 2887.75 1097.58C2891.08 1099.92 2892.75 1102.92 2892.75 1106.58C2892.75 1109.92 2891.25 1114.25 2888.25 1119.58C2885.58 1124.58 2882.25 1130.25 2878.25 1136.58C2874.58 1142.58 2871.25 1148.75 2868.25 1155.08C2865.58 1161.08 2864.25 1166.92 2864.25 1172.58C2864.25 1176.92 2865.41 1181.08 2867.75 1185.08C2870.08 1188.75 2873.91 1190.58 2879.25 1190.58C2887.25 1190.58 2898.41 1184.75 2912.75 1173.08C2927.41 1161.08 2942.25 1140.92 2957.25 1112.58L2966.75 1122.08C2958.75 1140.08 2949.08 1156.08 2937.75 1170.08C2926.75 1183.75 2915.08 1194.42 2902.75 1202.08C2890.41 1210.08 2877.91 1214.08 2865.25 1214.08C2851.58 1214.08 2841.41 1209.75 2834.75 1201.08C2828.08 1192.42 2824.41 1183.08 2823.75 1173.08C2823.75 1172.42 2823.75 1171.92 2823.75 1171.58C2823.75 1171.25 2823.75 1170.92 2823.75 1170.58C2810.41 1186.58 2798.08 1199.25 2786.75 1208.58C2775.75 1217.92 2763.91 1222.58 2751.25 1222.58ZM3191.8 1242.58C3172.46 1242.58 3153.96 1239.25 3136.3 1232.58C3118.96 1225.92 3104.8 1215.75 3093.8 1202.08C3082.8 1188.42 3077.3 1171.42 3077.3 1151.08C3077.3 1133.08 3081.3 1119.08 3089.3 1109.08C3097.3 1098.75 3107.3 1091.58 3119.3 1087.58C3131.3 1083.58 3142.96 1081.58 3154.3 1081.58C3143.63 1092.92 3135.46 1104.58 3129.8 1116.58C3124.46 1128.58 3121.8 1140.08 3121.8 1151.08C3121.8 1162.42 3124.63 1173.08 3130.3 1183.08C3136.3 1192.75 3145.13 1200.58 3156.8 1206.58C3168.46 1212.92 3182.96 1216.08 3200.3 1216.08C3215.3 1216.08 3229.8 1213.58 3243.8 1208.58C3258.13 1203.58 3269.8 1196.08 3278.8 1186.08C3288.13 1176.08 3292.8 1163.58 3292.8 1148.58C3292.8 1134.92 3288.8 1123.25 3280.8 1113.58C3273.13 1103.58 3263.13 1094.75 3250.8 1087.08C3238.46 1079.08 3225.46 1071.58 3211.8 1064.58C3198.13 1057.25 3185.13 1049.42 3172.8 1041.08C3160.46 1032.75 3150.3 1023.08 3142.3 1012.08C3134.63 1001.08 3130.8 987.915 3130.8 972.582C3130.8 958.915 3134.13 944.415 3140.8 929.082C3147.8 913.415 3157.63 898.749 3170.3 885.082C3182.96 871.415 3198.3 860.415 3216.3 852.082C3234.3 843.415 3254.3 839.082 3276.3 839.082C3299.3 839.082 3315.46 843.915 3324.8 853.582C3334.13 863.249 3338.8 875.915 3338.8 891.582C3338.8 903.915 3336.63 917.082 3332.3 931.082C3327.96 945.082 3322.63 958.415 3316.3 971.082C3310.3 983.749 3304.46 994.582 3298.8 1003.58C3291.46 1001.92 3285.96 999.082 3282.3 995.082C3278.63 990.749 3276.8 985.082 3276.8 978.082C3276.8 971.082 3278.13 963.249 3280.8 954.582C3283.8 945.915 3287.13 936.915 3290.8 927.582C3294.8 918.249 3298.13 909.249 3300.8 900.582C3303.8 891.582 3305.3 883.749 3305.3 877.082C3305.3 871.082 3303.46 866.415 3299.8 863.082C3296.46 859.749 3289.46 858.082 3278.8 858.082C3262.8 858.082 3248.13 861.582 3234.8 868.582C3221.46 875.582 3209.8 884.415 3199.8 895.082C3190.13 905.749 3182.63 917.082 3177.3 929.082C3171.96 940.749 3169.3 951.415 3169.3 961.082C3169.3 973.082 3173.13 983.415 3180.8 992.082C3188.46 1000.42 3198.3 1008.08 3210.3 1015.08C3222.63 1022.08 3235.46 1029.08 3248.8 1036.08C3262.46 1043.08 3275.3 1050.92 3287.3 1059.58C3299.63 1068.25 3309.63 1078.58 3317.3 1090.58C3324.96 1102.58 3328.8 1117.25 3328.8 1134.58C3328.8 1151.92 3324.8 1167.25 3316.8 1180.58C3309.13 1193.92 3298.63 1205.08 3285.3 1214.08C3271.96 1223.42 3257.13 1230.42 3240.8 1235.08C3224.8 1240.08 3208.46 1242.58 3191.8 1242.58ZM3415.49 1227.08C3398.15 1227.08 3383.82 1221.58 3372.49 1210.58C3361.49 1199.92 3355.99 1183.42 3355.99 1161.08C3355.99 1144.75 3359.15 1128.75 3365.49 1113.08C3371.82 1097.42 3380.32 1083.42 3390.99 1071.08C3401.65 1058.42 3413.49 1048.42 3426.49 1041.08C3439.82 1033.75 3453.32 1030.08 3466.99 1030.08C3480.99 1030.08 3490.99 1033.58 3496.99 1040.58C3503.32 1047.58 3506.49 1055.75 3506.49 1065.08C3506.49 1074.42 3504.15 1083.58 3499.49 1092.58C3495.15 1101.25 3489.15 1105.58 3481.49 1105.58C3475.15 1105.58 3469.99 1102.42 3465.99 1096.08C3469.32 1093.75 3472.82 1089.42 3476.49 1083.08C3480.15 1076.75 3481.99 1068.58 3481.99 1058.58C3481.99 1055.92 3481.32 1053.92 3479.99 1052.58C3478.65 1050.92 3476.15 1050.08 3472.49 1050.08C3464.15 1050.08 3455.32 1053.92 3445.99 1061.58C3436.99 1068.92 3428.49 1078.58 3420.49 1090.58C3412.82 1102.25 3406.49 1114.75 3401.49 1128.08C3396.82 1141.08 3394.49 1153.08 3394.49 1164.08C3394.49 1173.42 3396.82 1182.08 3401.49 1190.08C3406.49 1197.75 3415.99 1201.58 3429.99 1201.58C3442.65 1201.58 3455.82 1197.92 3469.49 1190.58C3483.15 1183.25 3495.99 1173.08 3507.99 1160.08C3519.99 1146.75 3529.65 1130.92 3536.99 1112.58L3546.99 1121.58C3538.99 1141.92 3527.82 1160.08 3513.49 1176.08C3499.49 1191.75 3483.82 1204.08 3466.49 1213.08C3449.49 1222.42 3432.49 1227.08 3415.49 1227.08ZM3565.49 1214.08C3550.83 1214.08 3539.83 1209.75 3532.49 1201.08C3525.16 1192.42 3521.49 1181.92 3521.49 1169.58C3521.49 1161.92 3522.83 1152.25 3525.49 1140.58C3528.16 1128.92 3531.83 1116.75 3536.49 1104.08C3541.49 1091.08 3547.16 1078.92 3553.49 1067.58C3559.83 1056.25 3566.66 1047.08 3573.99 1040.08C3581.33 1032.75 3588.66 1029.08 3595.99 1029.08C3599.99 1029.08 3603.49 1030.42 3606.49 1033.08C3609.49 1035.42 3610.99 1038.92 3610.99 1043.58C3610.99 1047.92 3608.33 1054.42 3602.99 1063.08C3597.99 1071.75 3591.99 1081.75 3584.99 1093.08C3578.33 1104.42 3572.33 1116.25 3566.99 1128.58C3561.99 1140.58 3559.49 1152.08 3559.49 1163.08C3559.49 1173.75 3561.33 1180.92 3564.99 1184.58C3568.99 1187.92 3574.66 1189.58 3581.99 1189.58C3593.33 1189.58 3605.66 1183.92 3618.99 1172.58C3632.33 1161.25 3646.16 1141.42 3660.49 1113.08L3667.99 1121.08C3656.33 1150.42 3641.49 1173.25 3623.49 1189.58C3605.49 1205.92 3586.16 1214.08 3565.49 1214.08ZM3624.49 988.582C3618.16 988.582 3612.33 987.082 3606.99 984.082C3601.99 980.749 3599.49 975.749 3599.49 969.082C3599.49 961.082 3603.83 954.249 3612.49 948.582C3621.16 942.915 3630.16 940.082 3639.49 940.082C3645.49 940.082 3650.49 941.415 3654.49 944.082C3658.83 946.749 3660.99 951.582 3660.99 958.582C3660.99 965.582 3657.16 972.415 3649.49 979.082C3641.83 985.415 3633.49 988.582 3624.49 988.582ZM3705.56 1221.08C3684.23 1221.08 3667.73 1215.25 3656.06 1203.58C3644.73 1192.25 3639.06 1177.92 3639.06 1160.58C3639.06 1145.92 3642.73 1130.42 3650.06 1114.08C3657.73 1097.42 3667.9 1081.92 3680.56 1067.58C3693.23 1052.92 3707.23 1041.08 3722.56 1032.08C3737.9 1023.08 3753.23 1018.58 3768.56 1018.58C3777.23 1018.58 3785.4 1020.92 3793.06 1025.58C3801.06 1029.92 3805.06 1038.75 3805.06 1052.08C3805.06 1064.75 3801.4 1076.58 3794.06 1087.58C3786.73 1098.58 3776.9 1108.42 3764.56 1117.08C3752.23 1125.75 3738.56 1132.92 3723.56 1138.58C3708.9 1143.92 3694.06 1147.42 3679.06 1149.08C3678.73 1150.42 3678.4 1151.92 3678.06 1153.58C3678.06 1154.92 3678.06 1157.25 3678.06 1160.58C3678.06 1162.25 3678.23 1165.25 3678.56 1169.58C3679.23 1173.58 3680.73 1177.92 3683.06 1182.58C3685.4 1187.25 3689.23 1191.25 3694.56 1194.58C3699.9 1197.92 3707.23 1199.58 3716.56 1199.58C3730.56 1199.58 3744.56 1195.75 3758.56 1188.08C3772.9 1180.08 3786.23 1169.58 3798.56 1156.58C3811.23 1143.58 3821.73 1129.08 3830.06 1113.08L3840.06 1121.08C3831.06 1141.08 3819.4 1158.58 3805.06 1173.58C3791.06 1188.58 3775.4 1200.25 3758.06 1208.58C3741.06 1216.92 3723.56 1221.08 3705.56 1221.08ZM3684.56 1130.58C3693.23 1129.58 3702.9 1126.58 3713.56 1121.58C3724.23 1116.58 3734.4 1110.25 3744.06 1102.58C3754.06 1094.92 3762.23 1086.58 3768.56 1077.58C3774.9 1068.25 3778.06 1058.92 3778.06 1049.58C3778.06 1045.92 3777.4 1043.42 3776.06 1042.08C3774.73 1040.75 3772.56 1040.08 3769.56 1040.08C3761.9 1040.08 3753.9 1042.92 3745.56 1048.58C3737.23 1053.92 3729.06 1061.08 3721.06 1070.08C3713.06 1078.75 3705.9 1088.42 3699.56 1099.08C3693.23 1109.75 3688.23 1120.25 3684.56 1130.58ZM3986.47 1209.08C3973.47 1209.08 3963.47 1205.75 3956.47 1199.08C3949.81 1192.75 3946.47 1184.58 3946.47 1174.58C3946.47 1167.92 3947.64 1160.92 3949.97 1153.58C3952.31 1145.92 3954.64 1138.25 3956.97 1130.58C3959.31 1122.92 3960.47 1115.58 3960.47 1108.58C3960.47 1101.25 3958.64 1096.25 3954.97 1093.58C3951.64 1090.58 3947.64 1089.08 3942.97 1089.08C3932.97 1089.08 3922.64 1093.25 3911.97 1101.58C3901.64 1109.58 3891.47 1119.75 3881.47 1132.08C3871.81 1144.42 3862.64 1157.25 3853.97 1170.58C3845.31 1183.92 3837.81 1195.92 3831.47 1206.58C3825.14 1206.58 3819.14 1205.42 3813.47 1203.08C3807.81 1201.08 3802.97 1197.42 3798.97 1192.08C3799.31 1190.42 3801.31 1185.42 3804.97 1177.08C3808.31 1168.42 3812.14 1158.25 3816.47 1146.58C3820.81 1134.58 3824.64 1122.08 3827.97 1109.08C3831.31 1096.08 3832.97 1084.25 3832.97 1073.58C3835.31 1070.92 3838.81 1068.25 3843.47 1065.58C3848.47 1062.92 3853.64 1061.58 3858.97 1061.58C3870.64 1061.58 3876.47 1066.58 3876.47 1076.58C3876.47 1080.58 3875.64 1086.58 3873.97 1094.58C3872.64 1102.25 3870.64 1111.08 3867.97 1121.08C3876.64 1109.42 3886.14 1098.42 3896.47 1088.08C3906.81 1077.75 3917.47 1069.42 3928.47 1063.08C3939.81 1056.42 3951.14 1053.08 3962.47 1053.08C3976.81 1053.08 3987.31 1057.92 3993.97 1067.58C4000.97 1077.25 4004.47 1087.92 4004.47 1099.58C4004.47 1109.58 4002.81 1118.92 3999.47 1127.58C3996.14 1136.25 3992.81 1144.42 3989.47 1152.08C3986.47 1159.75 3984.97 1167.25 3984.97 1174.58C3984.97 1179.92 3986.14 1183.75 3988.47 1186.08C3991.14 1188.08 3993.97 1189.08 3996.97 1189.08C4004.97 1189.08 4013.31 1185.25 4021.97 1177.58C4030.64 1169.92 4038.81 1160.25 4046.47 1148.58C4054.47 1136.58 4061.47 1124.58 4067.47 1112.58L4075.97 1119.58C4068.97 1135.92 4060.97 1150.92 4051.97 1164.58C4043.31 1177.92 4033.47 1188.75 4022.47 1197.08C4011.81 1205.08 3999.81 1209.08 3986.47 1209.08ZM4110.8 1227.08C4093.47 1227.08 4079.13 1221.58 4067.8 1210.58C4056.8 1199.92 4051.3 1183.42 4051.3 1161.08C4051.3 1144.75 4054.47 1128.75 4060.8 1113.08C4067.13 1097.42 4075.63 1083.42 4086.3 1071.08C4096.97 1058.42 4108.8 1048.42 4121.8 1041.08C4135.13 1033.75 4148.63 1030.08 4162.3 1030.08C4176.3 1030.08 4186.3 1033.58 4192.3 1040.58C4198.63 1047.58 4201.8 1055.75 4201.8 1065.08C4201.8 1074.42 4199.47 1083.58 4194.8 1092.58C4190.47 1101.25 4184.47 1105.58 4176.8 1105.58C4170.47 1105.58 4165.3 1102.42 4161.3 1096.08C4164.63 1093.75 4168.13 1089.42 4171.8 1083.08C4175.47 1076.75 4177.3 1068.58 4177.3 1058.58C4177.3 1055.92 4176.63 1053.92 4175.3 1052.58C4173.97 1050.92 4171.47 1050.08 4167.8 1050.08C4159.47 1050.08 4150.63 1053.92 4141.3 1061.58C4132.3 1068.92 4123.8 1078.58 4115.8 1090.58C4108.13 1102.25 4101.8 1114.75 4096.8 1128.08C4092.13 1141.08 4089.8 1153.08 4089.8 1164.08C4089.8 1173.42 4092.13 1182.08 4096.8 1190.08C4101.8 1197.75 4111.3 1201.58 4125.3 1201.58C4137.97 1201.58 4151.13 1197.92 4164.8 1190.58C4178.47 1183.25 4191.3 1173.08 4203.3 1160.08C4215.3 1146.75 4224.97 1130.92 4232.3 1112.58L4242.3 1121.58C4234.3 1141.92 4223.13 1160.08 4208.8 1176.08C4194.8 1191.75 4179.13 1204.08 4161.8 1213.08C4144.8 1222.42 4127.8 1227.08 4110.8 1227.08ZM4278.8 1221.08C4257.47 1221.08 4240.97 1215.25 4229.3 1203.58C4217.97 1192.25 4212.3 1177.92 4212.3 1160.58C4212.3 1145.92 4215.97 1130.42 4223.3 1114.08C4230.97 1097.42 4241.14 1081.92 4253.8 1067.58C4266.47 1052.92 4280.47 1041.08 4295.8 1032.08C4311.14 1023.08 4326.47 1018.58 4341.8 1018.58C4350.47 1018.58 4358.64 1020.92 4366.3 1025.58C4374.3 1029.92 4378.3 1038.75 4378.3 1052.08C4378.3 1064.75 4374.64 1076.58 4367.3 1087.58C4359.97 1098.58 4350.14 1108.42 4337.8 1117.08C4325.47 1125.75 4311.8 1132.92 4296.8 1138.58C4282.14 1143.92 4267.3 1147.42 4252.3 1149.08C4251.97 1150.42 4251.64 1151.92 4251.3 1153.58C4251.3 1154.92 4251.3 1157.25 4251.3 1160.58C4251.3 1162.25 4251.47 1165.25 4251.8 1169.58C4252.47 1173.58 4253.97 1177.92 4256.3 1182.58C4258.64 1187.25 4262.47 1191.25 4267.8 1194.58C4273.14 1197.92 4280.47 1199.58 4289.8 1199.58C4303.8 1199.58 4317.8 1195.75 4331.8 1188.08C4346.14 1180.08 4359.47 1169.58 4371.8 1156.58C4384.47 1143.58 4394.97 1129.08 4403.3 1113.08L4413.3 1121.08C4404.3 1141.08 4392.64 1158.58 4378.3 1173.58C4364.3 1188.58 4348.64 1200.25 4331.3 1208.58C4314.3 1216.92 4296.8 1221.08 4278.8 1221.08ZM4257.8 1130.58C4266.47 1129.58 4276.14 1126.58 4286.8 1121.58C4297.47 1116.58 4307.64 1110.25 4317.3 1102.58C4327.3 1094.92 4335.47 1086.58 4341.8 1077.58C4348.14 1068.25 4351.3 1058.92 4351.3 1049.58C4351.3 1045.92 4350.64 1043.42 4349.3 1042.08C4347.97 1040.75 4345.8 1040.08 4342.8 1040.08C4335.14 1040.08 4327.14 1042.92 4318.8 1048.58C4310.47 1053.92 4302.3 1061.08 4294.3 1070.08C4286.3 1078.75 4279.14 1088.42 4272.8 1099.08C4266.47 1109.75 4261.47 1120.25 4257.8 1130.58Z" fill="#323232"/>
<path d="M1450.83 1792.41C1450.83 1781.08 1449.28 1772.75 1446.17 1767.41C1443.06 1761.86 1436.83 1759.08 1427.5 1759.08H1420.83V1752.41H1507.5C1531.72 1752.41 1552.72 1756.41 1570.5 1764.41C1588.5 1772.41 1597.5 1787.86 1597.5 1810.75C1597.5 1821.19 1593.94 1830.64 1586.83 1839.08C1579.72 1847.53 1568.83 1854.19 1554.17 1859.08C1574.61 1862.41 1588.83 1868.53 1596.83 1877.41C1605.06 1886.08 1609.17 1897.75 1609.17 1912.41C1609.17 1934.86 1600.28 1950.53 1582.5 1959.41C1564.94 1968.08 1543.28 1972.41 1517.5 1972.41H1450.83V1792.41ZM1512.5 1854.08C1521.61 1854.08 1530.17 1852.41 1538.17 1849.08C1546.39 1845.53 1553.06 1840.41 1558.17 1833.75C1563.28 1826.86 1565.83 1818.64 1565.83 1809.08C1565.83 1799.08 1562.83 1790.75 1556.83 1784.08C1550.83 1777.19 1543.17 1772.19 1533.83 1769.08C1524.72 1765.75 1515.39 1764.08 1505.83 1764.08C1498.06 1764.08 1489.72 1765.19 1480.83 1767.41V1854.08H1512.5ZM1512.5 1960.75C1532.72 1960.75 1548.28 1956.75 1559.17 1948.75C1570.28 1940.75 1575.83 1929.19 1575.83 1914.08C1575.83 1898.97 1570.39 1887.41 1559.5 1879.41C1548.83 1871.41 1533.17 1867.41 1512.5 1867.41H1480.83V1956.08C1491.5 1959.19 1502.06 1960.75 1512.5 1960.75ZM1657.86 2029.08C1668.75 2029.08 1677.63 2026.53 1684.52 2021.41C1691.63 2016.53 1697.75 2007.41 1702.86 1994.08L1709.52 1975.75L1656.19 1845.75C1649.97 1829.75 1637.75 1820.86 1619.52 1819.08V1812.41H1647.86C1667.19 1812.41 1680.52 1821.3 1687.86 1839.08L1725.86 1931.41L1767.86 1815.75H1784.52L1719.52 1994.08C1713.08 2011.64 1705.97 2023.53 1698.19 2029.75C1690.41 2035.97 1680.3 2039.08 1667.86 2039.08H1657.86V2029.08ZM1834.41 1854.75C1829.53 1854.75 1825.3 1853.08 1821.75 1849.75C1818.19 1846.19 1816.41 1841.86 1816.41 1836.75C1816.41 1831.86 1818.19 1827.64 1821.75 1824.08C1825.3 1820.53 1829.53 1818.75 1834.41 1818.75C1839.53 1818.75 1843.75 1820.53 1847.08 1824.08C1850.64 1827.64 1852.41 1831.86 1852.41 1836.75C1852.41 1841.86 1850.64 1846.19 1847.08 1849.75C1843.75 1853.08 1839.53 1854.75 1834.41 1854.75ZM1834.08 1977.08C1829.19 1977.08 1824.97 1975.3 1821.41 1971.75C1817.86 1968.19 1816.08 1963.86 1816.08 1958.75C1816.08 1953.86 1817.86 1949.64 1821.41 1946.08C1824.97 1942.53 1829.19 1940.75 1834.08 1940.75C1839.19 1940.75 1843.53 1942.53 1847.08 1946.08C1850.64 1949.64 1852.41 1953.86 1852.41 1958.75C1852.41 1963.86 1850.64 1968.19 1847.08 1971.75C1843.53 1975.3 1839.19 1977.08 1834.08 1977.08Z" fill="#FE3C3C"/>
<path d="M1984.82 1791.41C1979.26 1778.53 1974.04 1769.75 1969.15 1765.08C1964.26 1760.19 1957.26 1757.3 1948.15 1756.41V1749.75C1949.26 1749.75 1950.93 1749.64 1953.15 1749.41C1955.15 1749.19 1957.26 1749.08 1959.48 1749.08C1970.6 1749.08 1981.26 1751.97 1991.48 1757.75C2001.71 1763.3 2010.37 1774.53 2017.48 1791.41L2074.48 1925.75L2094.15 1880.08C2103.48 1858.53 2121.37 1815.97 2147.82 1752.41H2163.82L2068.15 1975.75H2062.15L1984.82 1791.41ZM2212.7 1795.75C2207.59 1795.75 2203.14 1793.64 2199.37 1789.41C2195.81 1785.19 2194.03 1780.19 2194.03 1774.41C2194.03 1769.75 2195.37 1766.08 2198.03 1763.41C2200.92 1760.75 2204.7 1759.41 2209.37 1759.41C2214.48 1759.41 2218.81 1761.53 2222.37 1765.75C2226.14 1769.97 2228.03 1774.97 2228.03 1780.75C2228.03 1785.41 2226.59 1789.08 2223.7 1791.75C2221.03 1794.41 2217.37 1795.75 2212.7 1795.75ZM2200.03 1855.75C2200.03 1844.41 2198.48 1836.08 2195.37 1830.75C2192.26 1825.19 2186.03 1822.41 2176.7 1822.41H2170.03V1815.75H2200.03C2208.26 1815.75 2214.37 1816.86 2218.37 1819.08C2222.59 1821.08 2225.59 1824.86 2227.37 1830.41C2229.14 1835.97 2230.03 1844.41 2230.03 1855.75V1972.41H2200.03V1855.75ZM2286.07 1854.08C2280.73 1841.64 2275.62 1832.97 2270.73 1828.08C2265.84 1822.97 2259.4 1820.19 2251.4 1819.75V1813.08C2252.51 1813.08 2254.07 1812.97 2256.07 1812.75C2258.29 1812.53 2260.51 1812.41 2262.73 1812.41C2274.51 1812.41 2285.18 1815.41 2294.73 1821.41C2304.29 1827.19 2312.51 1838.08 2319.4 1854.08L2349.4 1925.75L2396.07 1815.75H2412.73L2344.4 1975.75H2337.73L2286.07 1854.08ZM2501.15 1975.75C2486.04 1975.75 2473.26 1972.19 2462.82 1965.08C2452.37 1957.75 2444.48 1947.97 2439.15 1935.75C2433.82 1923.3 2431.15 1909.41 2431.15 1894.08C2431.15 1878.97 2433.82 1865.19 2439.15 1852.75C2444.48 1840.3 2452.15 1830.53 2462.15 1823.41C2472.37 1816.08 2484.26 1812.41 2497.82 1812.41C2520.26 1812.41 2536.93 1818.75 2547.82 1831.41C2558.93 1843.86 2564.48 1861.97 2564.48 1885.75L2563.82 1899.08H2462.82C2462.82 1917.75 2466.82 1932.97 2474.82 1944.75C2482.82 1956.53 2493.82 1962.41 2507.82 1962.41C2518.26 1962.41 2527.04 1960.19 2534.15 1955.75C2541.48 1951.3 2548.26 1944.64 2554.48 1935.75L2561.15 1940.75C2553.82 1952.97 2545.26 1961.86 2535.48 1967.41C2525.71 1972.97 2514.26 1975.75 2501.15 1975.75ZM2532.82 1885.75C2532.82 1866.19 2529.93 1851.3 2524.15 1841.08C2518.37 1830.86 2509.6 1825.75 2497.82 1825.75C2491.15 1825.75 2485.15 1828.41 2479.82 1833.75C2474.48 1838.86 2470.26 1845.97 2467.15 1855.08C2464.26 1864.19 2462.82 1874.41 2462.82 1885.75H2532.82ZM2721.24 1975.75C2702.36 1975.75 2686.24 1966.86 2672.91 1949.08L2632.91 1895.75V1972.41H2602.91V1792.41C2602.91 1781.08 2601.36 1772.75 2598.24 1767.41C2595.13 1761.86 2588.91 1759.08 2579.58 1759.08H2572.91V1752.41H2602.91C2611.13 1752.41 2617.24 1753.53 2621.24 1755.75C2625.47 1757.75 2628.47 1761.53 2630.24 1767.08C2632.02 1772.64 2632.91 1781.08 2632.91 1792.41V1890.75L2674.58 1837.41C2680.36 1830.3 2686.47 1824.97 2692.91 1821.41C2699.36 1817.64 2707.69 1815.75 2717.91 1815.75H2727.91V1824.08C2721.91 1824.08 2716.13 1825.3 2710.58 1827.75C2705.02 1830.19 2700.24 1833.97 2696.24 1839.08L2659.58 1885.75L2701.24 1939.08C2707.69 1947.53 2713.69 1953.86 2719.24 1958.08C2725.02 1962.3 2731.24 1964.97 2737.91 1966.08V1972.41C2733.02 1974.64 2727.47 1975.75 2721.24 1975.75ZM2859.36 1792.41C2859.36 1781.08 2857.81 1772.75 2854.7 1767.41C2851.58 1761.86 2845.36 1759.08 2836.03 1759.08H2829.36V1752.41H2916.03C2937.36 1752.41 2956.58 1756.97 2973.7 1766.08C2990.81 1775.19 2999.36 1792.86 2999.36 1819.08C2999.36 1836.41 2994.92 1849.75 2986.03 1859.08C2977.14 1868.41 2967.14 1874.64 2956.03 1877.75C2945.14 1880.86 2935.14 1882.41 2926.03 1882.41H2889.36V1972.41H2859.36V1792.41ZM2914.36 1870.75C2921.47 1870.75 2929.03 1868.97 2937.03 1865.41C2945.03 1861.64 2951.81 1855.75 2957.36 1847.75C2963.14 1839.75 2966.03 1829.64 2966.03 1817.41C2966.03 1805.19 2963.14 1795.08 2957.36 1787.08C2951.81 1779.08 2945.03 1773.3 2937.03 1769.75C2929.03 1765.97 2921.47 1764.08 2914.36 1764.08C2906.58 1764.08 2898.25 1765.19 2889.36 1767.41V1867.41C2898.25 1869.64 2906.58 1870.75 2914.36 1870.75ZM3067.65 1975.75C3060.54 1975.75 3053.32 1974.3 3045.99 1971.41C3038.65 1968.3 3032.32 1963.3 3026.99 1956.41C3021.88 1949.53 3019.32 1940.41 3019.32 1929.08C3019.32 1912.19 3027.1 1900.19 3042.65 1893.08C3058.43 1885.97 3078.99 1882.41 3104.32 1882.41H3114.32C3114.32 1860.64 3111.32 1845.75 3105.32 1837.75C3099.32 1829.75 3090.65 1825.75 3079.32 1825.75C3069.32 1825.75 3061.32 1827.86 3055.32 1832.08C3049.32 1836.3 3045.1 1843.64 3042.65 1854.08H3027.65C3027.65 1846.53 3028.1 1840.64 3028.99 1836.41C3029.88 1831.97 3032.21 1827.86 3035.99 1824.08C3039.99 1820.08 3046.54 1817.19 3055.65 1815.41C3064.99 1813.41 3075.1 1812.41 3085.99 1812.41C3103.99 1812.41 3118.21 1817.3 3128.65 1827.08C3139.1 1836.64 3144.32 1855.08 3144.32 1882.41V1972.41H3127.65L3115.99 1957.41H3114.32C3110.32 1962.53 3104.43 1966.86 3096.65 1970.41C3088.88 1973.97 3079.21 1975.75 3067.65 1975.75ZM3082.65 1960.75C3089.99 1960.75 3096.1 1958.97 3100.99 1955.41C3105.88 1951.86 3110.32 1946.97 3114.32 1940.75V1895.75H3104.32C3087.88 1895.75 3074.88 1898.86 3065.32 1905.08C3055.76 1911.08 3050.99 1919.08 3050.99 1929.08C3050.99 1939.3 3053.99 1947.19 3059.99 1952.75C3066.21 1958.08 3073.76 1960.75 3082.65 1960.75ZM3242.47 1975.75C3223.14 1975.75 3208.25 1968.08 3197.8 1952.75C3187.58 1937.41 3182.47 1917.86 3182.47 1894.08C3182.47 1870.3 3187.8 1850.75 3198.47 1835.41C3209.36 1820.08 3225.14 1812.41 3245.8 1812.41C3254.25 1812.41 3261.69 1813.3 3268.14 1815.08C3274.58 1816.86 3281.02 1819.3 3287.47 1822.41V1792.41C3287.47 1781.08 3285.91 1772.75 3282.8 1767.41C3279.69 1761.86 3273.47 1759.08 3264.14 1759.08H3257.47V1752.41H3287.47C3295.69 1752.41 3301.8 1753.53 3305.8 1755.75C3310.02 1757.75 3313.02 1761.53 3314.8 1767.08C3316.58 1772.64 3317.47 1781.08 3317.47 1792.41V1972.41H3300.8L3289.14 1957.41H3287.47C3282.58 1962.97 3276.8 1967.41 3270.14 1970.75C3263.69 1974.08 3254.47 1975.75 3242.47 1975.75ZM3252.47 1962.41C3261.58 1962.41 3268.47 1960.75 3273.14 1957.41C3277.8 1954.08 3282.58 1949.08 3287.47 1942.41V1835.75C3280.8 1832.64 3275.02 1830.19 3270.14 1828.41C3265.25 1826.64 3260.47 1825.75 3255.8 1825.75C3241.58 1825.75 3231.02 1831.97 3224.14 1844.41C3217.47 1856.86 3214.14 1873.41 3214.14 1894.08C3214.14 1914.53 3217.36 1931.08 3223.8 1943.75C3230.25 1956.19 3239.8 1962.41 3252.47 1962.41ZM3383.27 1795.75C3378.16 1795.75 3373.72 1793.64 3369.94 1789.41C3366.38 1785.19 3364.61 1780.19 3364.61 1774.41C3364.61 1769.75 3365.94 1766.08 3368.61 1763.41C3371.5 1760.75 3375.27 1759.41 3379.94 1759.41C3385.05 1759.41 3389.38 1761.53 3392.94 1765.75C3396.72 1769.97 3398.61 1774.97 3398.61 1780.75C3398.61 1785.41 3397.16 1789.08 3394.27 1791.75C3391.61 1794.41 3387.94 1795.75 3383.27 1795.75ZM3370.61 1855.75C3370.61 1844.41 3369.05 1836.08 3365.94 1830.75C3362.83 1825.19 3356.61 1822.41 3347.27 1822.41H3340.61V1815.75H3370.61C3378.83 1815.75 3384.94 1816.86 3388.94 1819.08C3393.16 1821.08 3396.16 1824.86 3397.94 1830.41C3399.72 1835.97 3400.61 1844.41 3400.61 1855.75V1972.41H3370.61V1855.75ZM3484.97 1975.75C3477.86 1975.75 3470.64 1974.3 3463.3 1971.41C3455.97 1968.3 3449.64 1963.3 3444.3 1956.41C3439.19 1949.53 3436.64 1940.41 3436.64 1929.08C3436.64 1912.19 3444.42 1900.19 3459.97 1893.08C3475.75 1885.97 3496.3 1882.41 3521.64 1882.41H3531.64C3531.64 1860.64 3528.64 1845.75 3522.64 1837.75C3516.64 1829.75 3507.97 1825.75 3496.64 1825.75C3486.64 1825.75 3478.64 1827.86 3472.64 1832.08C3466.64 1836.3 3462.42 1843.64 3459.97 1854.08H3444.97C3444.97 1846.53 3445.42 1840.64 3446.3 1836.41C3447.19 1831.97 3449.53 1827.86 3453.3 1824.08C3457.3 1820.08 3463.86 1817.19 3472.97 1815.41C3482.3 1813.41 3492.42 1812.41 3503.3 1812.41C3521.3 1812.41 3535.53 1817.3 3545.97 1827.08C3556.42 1836.64 3561.64 1855.08 3561.64 1882.41V1972.41H3544.97L3533.3 1957.41H3531.64C3527.64 1962.53 3521.75 1966.86 3513.97 1970.41C3506.19 1973.97 3496.53 1975.75 3484.97 1975.75ZM3499.97 1960.75C3507.3 1960.75 3513.42 1958.97 3518.3 1955.41C3523.19 1951.86 3527.64 1946.97 3531.64 1940.75V1895.75H3521.64C3505.19 1895.75 3492.19 1898.86 3482.64 1905.08C3473.08 1911.08 3468.3 1919.08 3468.3 1929.08C3468.3 1939.3 3471.3 1947.19 3477.3 1952.75C3483.53 1958.08 3491.08 1960.75 3499.97 1960.75Z" fill="#323232"/>
</svg>
