<svg width="734" height="490" viewBox="0 0 734 490" fill="none" xmlns="http://www.w3.org/2000/svg">
<path d="M317.372 263.116V267.44L309.664 270.086L317.372 272.732V277.057L304.398 272.35V267.822L317.372 263.116ZM317.757 281.534L326.152 257.57H331.24L322.845 281.534H317.757ZM331.378 263.116L344.352 267.822V272.35L331.378 277.057V272.732L339.086 270.086L331.378 267.44V263.116Z" fill="#323247"/>
<path d="M456.839 185.35C455.349 218.01 423.239 243.04 399.189 244.56C367.409 246.56 344.699 217.89 341.529 185.35C338.779 157.15 348.779 157.56 356.259 145.82C365.259 131.58 382.139 123.71 399.189 123.71C431.029 123.71 458.849 141.4 456.839 185.35Z" fill="#B83D5D"/>
<path d="M421.528 241.51H376.838V297.45H421.528V241.51Z" fill="#E3B5AA"/>
<path d="M449.379 208.87C457.379 196.78 467.489 196.25 471.729 210.55C475.969 224.85 461.989 236.63 450.609 232.29C439.229 227.95 449.379 208.87 449.379 208.87Z" fill="#E3B5AA"/>
<path d="M458.778 209.19C464.118 208.19 466.858 224.12 455.148 224.65L457.548 219.1L455.288 214.48L458.778 209.19Z" fill="#D78F97"/>
<path d="M453.398 226.83C460.228 219.55 455.298 214.48 455.298 214.48C455.298 214.48 461.798 201.16 464.398 211.37" stroke="#C87E84" stroke-width="0.5" stroke-miterlimit="10"/>
<path d="M348.618 208.87C340.618 196.78 330.498 196.25 326.268 210.55C322.038 224.85 336.008 236.63 347.388 232.29C358.768 227.95 348.618 208.87 348.618 208.87Z" fill="#E3B5AA"/>
<path d="M339.209 209.19C333.869 208.19 331.129 224.12 342.839 224.65L340.429 219.1L342.689 214.48L339.209 209.19Z" fill="#D78F97"/>
<path d="M344.588 226.83C337.768 219.55 342.688 214.48 342.688 214.48C342.688 214.48 336.198 201.16 333.588 211.37" stroke="#C87E84" stroke-width="0.5" stroke-miterlimit="10"/>
<path d="M421.528 242.74V263.56C405.468 285.32 376.838 278.25 376.838 278.25L377.338 242.75L421.528 242.74Z" fill="#C87E84"/>
<path d="M383.508 150.37H414.858C423.51 150.37 431.807 153.807 437.924 159.924C444.042 166.042 447.478 174.339 447.478 182.99V218.29C447.478 231.1 442.39 243.385 433.332 252.443C424.274 261.501 411.988 266.59 399.178 266.59C386.368 266.59 374.083 261.501 365.025 252.443C355.967 243.385 350.878 231.1 350.878 218.29V182.99C350.878 178.706 351.722 174.463 353.362 170.505C355.002 166.546 357.406 162.95 360.436 159.921C363.466 156.892 367.063 154.489 371.022 152.85C374.981 151.212 379.224 150.369 383.508 150.37Z" fill="#E3B5AA"/>
<path d="M406.618 224.56C406.481 226.434 405.639 228.186 404.263 229.465C402.886 230.744 401.077 231.455 399.198 231.455C397.319 231.455 395.51 230.744 394.134 229.465C392.757 228.186 391.916 226.434 391.778 224.56" stroke="#B83D5D" stroke-miterlimit="10"/>
<path d="M355.988 152.56C355.988 152.56 347.528 138.56 358.118 126.17C358.118 126.14 365.778 140.24 355.988 152.56Z" fill="#B83D5D"/>
<path d="M360.288 149.2C360.288 149.2 348.508 160.58 334.088 153.01C334.088 153.01 346.128 142.44 360.288 149.2Z" fill="#B83D5D"/>
<path d="M379.999 207.27C379.999 211.27 378.299 214.5 376.209 214.5C374.119 214.5 372.409 211.26 372.409 207.27C372.409 203.28 374.109 200.04 376.209 200.04C378.309 200.04 379.999 203.27 379.999 207.27Z" fill="#36364F"/>
<path d="M392.981 211.823C395.793 201.473 389.682 190.803 379.332 187.991C368.982 185.179 358.312 191.29 355.5 201.64C352.688 211.99 358.799 222.66 369.149 225.472C379.499 228.284 390.169 222.173 392.981 211.823Z" stroke="white" stroke-width="4" stroke-miterlimit="10"/>
<path d="M425.959 207.27C425.959 211.27 424.259 214.5 422.159 214.5C420.059 214.5 418.369 211.26 418.369 207.27C418.369 203.28 420.069 200.04 422.159 200.04C424.249 200.04 425.959 203.27 425.959 207.27Z" fill="#36364F"/>
<path d="M442.835 211.896C445.698 201.56 439.639 190.86 429.303 187.997C418.966 185.135 408.267 191.193 405.404 201.53C402.541 211.866 408.6 222.566 418.936 225.428C429.273 228.291 439.972 222.232 442.835 211.896Z" stroke="white" stroke-width="4" stroke-miterlimit="10"/>
<path d="M356.869 164.15C356.869 164.15 387.559 147.98 407.949 159.7C428.339 171.42 430.629 195.64 450.759 189.37C450.759 189.37 466.049 182.64 449.229 159.19C432.409 135.74 420.899 131.19 399.009 136.26C377.119 141.33 362.859 145.32 356.869 164.15Z" fill="#B83D5D"/>
<path d="M355.699 163.92C355.699 163.92 365.829 150.49 379.999 146.92C394.169 143.35 409.869 160.81 409.869 160.81C409.869 160.81 373.539 155.65 355.699 163.92Z" fill="#9A304F"/>
<path d="M350.959 180.81C350.959 180.81 354.379 205.74 350.959 220.95C350.959 220.95 345.969 182.3 350.959 180.81Z" fill="#B83D5D"/>
<path d="M447.128 180.81C447.128 180.81 443.718 205.74 447.128 220.95C447.128 220.95 452.128 182.3 447.128 180.81Z" fill="#B83D5D"/>
<path d="M384.858 178.87C379.588 176.35 370.218 173.58 361.538 179.76C361.202 179.987 360.943 180.31 360.795 180.687C360.647 181.065 360.617 181.478 360.709 181.873C360.801 182.267 361.011 182.625 361.311 182.898C361.611 183.17 361.987 183.345 362.388 183.4C366.124 184.041 369.908 184.356 373.698 184.34C377.347 184.194 380.968 183.63 384.488 182.66C384.902 182.57 385.277 182.351 385.558 182.035C385.84 181.719 386.014 181.321 386.055 180.9C386.096 180.478 386.002 180.055 385.787 179.69C385.572 179.325 385.247 179.038 384.858 178.87Z" fill="#B83D5D"/>
<path d="M435.778 178.87C430.508 176.35 421.138 173.58 412.448 179.76C412.112 179.987 411.853 180.311 411.705 180.69C411.558 181.068 411.529 181.482 411.622 181.877C411.715 182.272 411.927 182.629 412.228 182.901C412.529 183.173 412.906 183.347 413.308 183.4C417.044 184.042 420.828 184.356 424.618 184.34C428.267 184.194 431.888 183.63 435.408 182.66C435.822 182.57 436.197 182.351 436.478 182.035C436.76 181.719 436.933 181.321 436.975 180.9C437.016 180.478 436.922 180.055 436.707 179.69C436.492 179.325 436.167 179.038 435.778 178.87Z" fill="#B83D5D"/>
<path d="M415.519 242.05C414.983 243.034 414.346 243.959 413.619 244.81C411.039 247.92 406.619 250.9 399.139 251.04H398.589C391.589 250.9 387.209 248.25 384.589 245.32C383.669 244.326 382.883 243.217 382.249 242.02C381.525 240.672 380.996 239.227 380.679 237.73L417.149 237.8C416.822 239.29 416.272 240.723 415.519 242.05Z" fill="#C33E5D"/>
<path d="M415.518 242.05C414.983 243.034 414.346 243.959 413.618 244.81C409.034 242.76 404.055 241.741 399.034 241.826C394.013 241.911 389.071 243.096 384.558 245.3C383.639 244.306 382.852 243.197 382.218 242C381.495 240.652 380.966 239.207 380.648 237.71L417.118 237.78C416.803 239.276 416.264 240.715 415.518 242.05Z" fill="#36364F"/>
<path d="M554.208 436.41L227.208 436.75C227.208 436.75 233.309 423.99 242.089 407.08L244.089 403.25C256.089 380.38 272.208 351.49 284.798 335.82C299.298 317.82 333.558 304.92 356.798 297.89C370.358 293.8 380.178 291.69 380.178 291.69H417.779C417.779 291.69 426.599 293.58 439.059 297.27C462.309 304.14 497.058 318.27 513.188 335.82C516.966 340.049 520.315 344.641 523.188 349.53C543.048 382.5 554.208 436.41 554.208 436.41Z" fill="#EBA154"/>
<path opacity="0.5" d="M554.208 436.41L227.208 436.75C227.208 436.75 233.309 423.99 242.089 407.08C405.249 455.08 491.229 376.44 510.849 355.16C512.418 353.455 514.313 352.08 516.422 351.119C518.531 350.157 520.812 349.627 523.128 349.56H523.208C543.048 382.5 554.208 436.41 554.208 436.41Z" fill="#D9751F"/>
<path d="M394.059 210.03H404.309" stroke="white" stroke-width="4" stroke-miterlimit="10"/>
<path d="M439.089 297.26C398.619 341.79 356.869 297.89 356.869 297.89C370.429 293.79 380.249 291.68 380.249 291.68H417.779C417.779 291.68 426.629 293.56 439.089 297.26Z" fill="#E3B5AA"/>
<path d="M309.818 386.02V436.81" stroke="#DC831E" stroke-width="3" stroke-miterlimit="10"/>
<path d="M309.818 418.39L296.188 401.01" stroke="#DC831E" stroke-width="3" stroke-miterlimit="10"/>
<path d="M487.619 386.02V436.81" stroke="#DC831E" stroke-width="3" stroke-miterlimit="10"/>
<path d="M487.619 418.39L499.729 402.95" stroke="#DC831E" stroke-width="3" stroke-miterlimit="10"/>
<path d="M354.929 317.22C354.929 317.22 405.119 351.49 439.089 315.55" stroke="#DC831E" stroke-width="3" stroke-miterlimit="10"/>
<path d="M468.911 355.227H476.057L462.607 386.3H455.505L442.099 355.227H449.867L459.322 377.422L468.911 355.227Z" fill="white"/>
<path d="M355.709 143.15C366.979 95.7902 479.859 101 458.859 193.21C452.559 220.83 406.559 130.43 366.859 152.6C365.415 153.412 363.75 153.744 362.106 153.548C360.461 153.353 358.921 152.639 357.709 151.51C355.419 149.38 354.979 146.19 355.709 143.15Z" fill="#B83D5D"/>
<path d="M417.708 436.44H417.599C417.322 436.455 417.045 436.455 416.768 436.44H197.779C195.338 436.437 192.998 435.466 191.273 433.739C189.547 432.012 188.579 429.671 188.579 427.23V427.13L154.478 330.78C153.873 329.074 153.687 327.247 153.934 325.454C154.182 323.661 154.856 321.953 155.901 320.474C156.945 318.996 158.329 317.789 159.937 316.957C161.544 316.124 163.328 315.69 165.139 315.69H307.289C309.629 315.689 311.911 316.413 313.822 317.763C315.733 319.114 317.178 321.024 317.958 323.23L354.708 427.05L354.768 427.23H416.979C422.689 427.29 423.318 435.83 417.708 436.44Z" fill="#80ABBD"/>
<path d="M245.33 398.191C253.942 395.229 258.008 384.352 254.412 373.897C250.816 363.441 240.919 357.366 232.307 360.328C223.695 363.29 219.629 374.167 223.225 384.623C226.821 395.079 236.718 401.153 245.33 398.191Z" fill="white"/>
<path d="M416.979 427.29H354.779L354.729 427.1L317.959 323.28C317.178 321.075 315.733 319.166 313.822 317.818C311.91 316.469 309.628 315.746 307.289 315.75H302.539C302.539 315.75 313.159 316.44 315.819 325.95C318.479 335.46 354.779 436.3 354.779 436.3L357.459 436.49H416.779C417.059 436.49 417.339 436.49 417.609 436.49C423.329 435.94 422.779 427.29 416.979 427.29Z" fill="#4B7195"/>
<path opacity="0.4" d="M417.708 436.44H417.598C417.322 436.455 417.045 436.455 416.768 436.44H197.778C196.396 436.442 195.031 436.13 193.785 435.529C192.54 434.928 191.447 434.053 190.588 432.97C320.028 444.09 307.288 315.69 307.288 315.69C309.628 315.689 311.911 316.413 313.822 317.763C315.733 319.114 317.178 321.024 317.958 323.23L354.708 427.05L354.768 427.23H415.998C416.658 430.32 417.238 433.37 417.708 436.44Z" fill="#5A93A0"/>
<path d="M157.308 372.89V376.11C151.488 376.78 150.058 381.71 150.058 387.7V389.7C150.058 395.7 151.488 400.62 157.308 401.29V404.49H45.9184C43.7251 404.49 41.6216 403.619 40.0707 402.068C38.5197 400.517 37.6484 398.413 37.6484 396.22V381.22C37.6471 380.133 37.86 379.056 38.2749 378.051C38.6898 377.046 39.2986 376.132 40.0665 375.362C40.8345 374.593 41.7465 373.982 42.7506 373.564C43.7547 373.147 44.8311 372.931 45.9184 372.93L157.308 372.89Z" fill="#4B7195"/>
<path d="M155.579 397.98C155.725 398.347 155.778 398.745 155.734 399.137C155.69 399.53 155.551 399.906 155.327 400.232C155.104 400.558 154.804 400.824 154.454 401.007C154.104 401.19 153.714 401.283 153.319 401.28L46.8687 401.35V376.04L153.319 376.11C153.906 376.111 154.472 376.328 154.909 376.72C155.295 377.037 155.569 377.469 155.69 377.954C155.81 378.439 155.771 378.949 155.579 379.41C154.689 381.52 154.729 384.41 154.729 387.7V389.7C154.779 392.94 154.689 395.87 155.579 397.98Z" fill="white"/>
<path opacity="0.4" d="M154.909 376.72C152.909 376.83 58.7987 381.72 52.3487 390.83C50.5987 393.31 48.6187 394.69 46.8687 394.97V376.04L153.319 376.11C153.906 376.111 154.472 376.328 154.909 376.72Z" fill="#A3D5E6"/>
<path d="M42.9884 372.9H52.3484V404.49H42.9884C41.5722 404.49 40.2139 403.927 39.2125 402.926C38.211 401.924 37.6484 400.566 37.6484 399.15V378.24C37.6484 376.824 38.211 375.465 39.2125 374.464C40.2139 373.463 41.5722 372.9 42.9884 372.9Z" fill="#4B7195"/>
<path opacity="0.4" d="M155.579 397.98C155.725 398.347 155.778 398.744 155.734 399.137C155.69 399.53 155.551 399.906 155.327 400.232C155.104 400.558 154.804 400.824 154.454 401.007C154.104 401.189 153.714 401.283 153.319 401.28H132.059C148.949 399.36 147.889 385.49 147.889 385.49C148.079 384.83 134.549 376.69 134.779 376.09H153.319C153.906 376.091 154.471 376.308 154.909 376.7C155.295 377.016 155.569 377.449 155.69 377.934C155.81 378.418 155.771 378.929 155.579 379.39C154.689 381.5 154.729 384.39 154.729 387.68V389.68C154.779 392.94 154.689 395.87 155.579 397.98Z" fill="#A3D5E6"/>
<path opacity="0.4" d="M154.718 386.85H52.5283V389.13H154.718V386.85Z" fill="#A3D5E6"/>
<path opacity="0.4" d="M154.718 381.71H52.5283V383.99H154.718V381.71Z" fill="#A3D5E6"/>
<path opacity="0.4" d="M154.718 393.39H52.5283V395.67H154.718V393.39Z" fill="#A3D5E6"/>
<path d="M121.808 396.63L116.378 391.21L110.938 396.63V381.71H121.808V396.63Z" fill="#C33E5D"/>
<path d="M169.229 404.38V407.56C163.399 408.23 161.979 413.15 161.979 419.15V421.15C161.979 427.15 163.399 432.08 169.229 432.74V435.95H57.8386C55.6443 435.95 53.5398 435.079 51.9873 433.528C50.4348 431.978 49.5612 429.874 49.5586 427.68V412.68C49.5586 410.483 50.4306 408.376 51.9831 406.822C53.5357 405.267 55.6417 404.393 57.8386 404.39L169.229 404.38Z" fill="#C33E5D"/>
<path d="M167.488 429.46C167.634 429.827 167.688 430.225 167.644 430.617C167.6 431.01 167.46 431.386 167.237 431.712C167.014 432.038 166.714 432.304 166.364 432.487C166.013 432.67 165.623 432.763 165.228 432.76L58.7783 432.84V407.56L165.228 407.64C165.817 407.638 166.386 407.851 166.828 408.24C167.212 408.56 167.484 408.996 167.603 409.481C167.721 409.967 167.681 410.479 167.488 410.94C166.608 413.05 166.638 415.94 166.638 419.23V421.23C166.638 424.43 166.608 427.36 167.488 429.46Z" fill="white"/>
<path opacity="0.4" d="M166.828 408.2C164.778 408.31 70.7083 413.2 64.2683 422.32C62.5183 424.8 60.5283 426.18 58.7783 426.46V407.56L165.228 407.64C165.812 407.627 166.38 407.826 166.828 408.2Z" fill="#A3D5E6"/>
<path d="M54.9084 404.38H64.2684V435.97H54.9084C53.4921 435.97 52.1339 435.407 51.1324 434.406C50.131 433.404 49.5684 432.046 49.5684 430.63V409.73C49.5671 409.028 49.7042 408.332 49.972 407.683C50.2398 407.034 50.6329 406.444 51.1289 405.947C51.6249 405.451 52.214 405.056 52.8625 404.787C53.5111 404.518 54.2063 404.38 54.9084 404.38Z" fill="#C33E5D"/>
<path opacity="0.4" d="M167.489 429.46C167.634 429.827 167.688 430.225 167.644 430.617C167.6 431.01 167.461 431.386 167.237 431.712C167.014 432.038 166.714 432.304 166.364 432.487C166.013 432.67 165.624 432.763 165.229 432.76H143.979C160.859 430.86 159.779 416.99 159.779 416.99C159.959 416.32 146.439 408.19 146.669 407.58H165.199C165.787 407.578 166.356 407.791 166.799 408.18C167.183 408.5 167.454 408.936 167.573 409.421C167.692 409.907 167.652 410.419 167.459 410.88C166.579 412.99 166.609 415.88 166.609 419.17V421.17C166.639 424.43 166.609 427.36 167.489 429.46Z" fill="#A3D5E6"/>
<path opacity="0.4" d="M166.639 418.33H64.4487V420.61H166.639V418.33Z" fill="#A3D5E6"/>
<path opacity="0.4" d="M166.639 413.19H64.4487V415.47H166.639V413.19Z" fill="#A3D5E6"/>
<path opacity="0.4" d="M166.639 424.87H64.4487V427.15H166.639V424.87Z" fill="#A3D5E6"/>
<path d="M155.459 430.1L149.719 424.37L143.979 430.1V414.34H155.459V430.1Z" fill="#C33E5D"/>
<path d="M708.629 449.7V452.01C708.626 455.4 707.277 458.651 704.879 461.048C702.481 463.444 699.229 464.79 695.839 464.79H41.7786C38.9498 464.79 36.2008 463.853 33.961 462.125C31.7212 460.397 30.1168 457.976 29.3986 455.24C29.1329 454.194 28.9986 453.119 28.9986 452.04V449.73C28.9946 448.049 29.3223 446.384 29.9628 444.83C30.6033 443.276 31.544 441.864 32.7311 440.674C33.9182 439.484 35.3284 438.54 36.8809 437.896C38.4334 437.252 40.0977 436.92 41.7786 436.92H695.779C697.462 436.912 699.131 437.237 700.689 437.875C702.247 438.514 703.664 439.454 704.858 440.641C706.052 441.829 706.999 443.24 707.646 444.795C708.294 446.349 708.627 448.016 708.629 449.7Z" fill="#47547C"/>
<path opacity="0.5" d="M708.629 449.7V452.01C708.626 455.4 707.277 458.651 704.879 461.047C702.481 463.444 699.229 464.79 695.839 464.79H41.7785C38.9498 464.79 36.2007 463.853 33.9609 462.125C31.7211 460.397 30.1168 457.976 29.3985 455.24C29.1285 453.24 28.9985 452.04 28.9985 452.04C395.779 464.79 695.839 436.92 695.839 436.92C699.229 436.92 702.481 438.266 704.879 440.663C707.277 443.059 708.626 446.31 708.629 449.7Z" fill="#2B2B3F"/>
<path d="M692.318 99.29C692.318 99.21 692.318 99.13 692.318 99.05C692.318 98.97 692.318 98.9 692.318 98.82C693.561 98.258 694.761 97.6062 695.908 96.87C697.238 95.9698 698.495 94.9668 699.668 93.87L699.408 92.87C699.117 91.7158 698.746 90.5831 698.298 89.48C698.068 88.94 697.798 88.41 697.538 87.88C697.297 87.3383 697.013 86.8167 696.688 86.32L696.148 85.43C694.537 85.4516 692.93 85.619 691.348 85.93C690.016 86.2077 688.709 86.5922 687.438 87.08L687.108 86.75C688.169 83.9671 688.728 81.0181 688.758 78.04L687.868 77.5C687.371 77.1687 686.845 76.881 686.298 76.64C685.768 76.38 685.238 76.11 684.688 75.88C683.59 75.4401 682.464 75.0726 681.318 74.78L680.318 74.52C679.213 75.6859 678.21 76.9438 677.318 78.28C676.563 79.425 675.894 80.625 675.318 81.87H675.098H674.858C674.286 80.623 673.618 79.4227 672.858 78.28C671.967 76.9435 670.964 75.6856 669.858 74.52L668.858 74.78C667.708 75.0711 666.579 75.4386 665.478 75.88C664.938 76.11 664.408 76.38 663.868 76.64C663.322 76.8832 662.797 77.1708 662.298 77.5L661.408 78.04C661.443 79.6482 661.613 81.2506 661.918 82.83C662.201 84.1642 662.585 85.4748 663.068 86.75L662.738 87.08C661.468 86.5936 660.16 86.209 658.828 85.93C657.247 85.6195 655.64 85.4522 654.028 85.43L653.478 86.32C653.162 86.8212 652.878 87.3422 652.628 87.88C652.378 88.41 652.108 88.94 651.878 89.48C651.426 90.5814 651.055 91.7145 650.768 92.87L650.508 93.87C651.679 94.969 652.937 95.9723 654.268 96.87C655.411 97.6082 656.608 98.26 657.848 98.82C657.848 98.9 657.848 98.97 657.848 99.05C657.848 99.13 657.848 99.21 657.848 99.29C656.605 99.8625 655.408 100.531 654.268 101.29C652.932 102.181 651.674 103.185 650.508 104.29L650.768 105.29C651.057 106.442 651.428 107.571 651.878 108.67C652.108 109.21 652.378 109.74 652.628 110.28C652.88 110.813 653.164 111.331 653.478 111.83L654.028 112.73C655.64 112.703 657.246 112.536 658.828 112.23C660.16 111.948 661.468 111.56 662.738 111.07L663.068 111.4C662.585 112.675 662.201 113.986 661.918 115.32C661.614 116.903 661.443 118.509 661.408 120.12L662.298 120.67C662.802 120.985 663.327 121.266 663.868 121.51C664.408 121.77 664.938 122.04 665.478 122.27C666.576 122.72 667.706 123.088 668.858 123.37L669.858 123.63C671.953 121.504 673.647 119.018 674.858 116.29H675.098H675.318C675.899 117.533 676.567 118.733 677.318 119.88C678.207 121.215 679.211 122.47 680.318 123.63L681.318 123.37C682.467 123.087 683.593 122.719 684.688 122.27C685.238 122.04 685.768 121.77 686.298 121.51C686.841 121.268 687.366 120.987 687.868 120.67L688.758 120.12C688.729 117.139 688.17 114.186 687.108 111.4C687.218 111.3 687.318 111.19 687.438 111.07C688.708 111.561 690.016 111.949 691.348 112.23C692.931 112.536 694.537 112.703 696.148 112.73L696.688 111.83C697.01 111.336 697.295 110.817 697.538 110.28C697.798 109.74 698.068 109.21 698.298 108.67C698.745 107.57 699.115 106.441 699.408 105.29L699.668 104.29C698.501 103.187 697.243 102.184 695.908 101.29C694.764 100.533 693.564 99.8645 692.318 99.29ZM675.078 107.29C673.447 107.29 671.852 106.806 670.495 105.9C669.138 104.993 668.081 103.705 667.456 102.197C666.832 100.69 666.668 99.0309 666.987 97.4305C667.305 95.8302 668.091 94.3602 669.245 93.2064C670.398 92.0526 671.868 91.2669 673.469 90.9485C675.069 90.6302 676.728 90.7936 678.235 91.418C679.743 92.0424 681.031 93.0999 681.938 94.4566C682.844 95.8133 683.328 97.4083 683.328 99.04C683.33 100.124 683.117 101.198 682.703 102.2C682.289 103.202 681.682 104.113 680.915 104.88C680.149 105.647 679.239 106.256 678.238 106.671C677.236 107.086 676.163 107.3 675.078 107.3V107.29Z" fill="#EBA154"/>
<path d="M651.419 111.79H595.729V166.63H611.188" stroke="#FD783D" stroke-miterlimit="10" stroke-dasharray="4 4"/>
<path d="M643.129 195.98H612.519V201.45H643.129V195.98Z" fill="white"/>
<path d="M659.589 206.11H612.519V211.58H659.589V206.11Z" fill="white"/>
<path d="M628.549 216.23H612.519V221.7H628.549V216.23Z" fill="white"/>
<path d="M651.118 216.23H635.088V221.7H651.118V216.23Z" fill="#EBA154"/>
<path d="M679.878 216.23H656.858V221.7H679.878V216.23Z" fill="#EBA154"/>
<path d="M679.878 206.11H665.898V211.58H679.878V206.11Z" fill="#EBA154"/>
<path d="M679.879 195.98H649.269V201.45H679.879V195.98Z" fill="#EBA154"/>
<path d="M691.088 160.55H690.068V221.53H691.088V160.55Z" fill="white"/>
<path d="M644.468 162.79H612.988V168.42H644.468V162.79Z" fill="white"/>
<path d="M661.388 173.2H612.988V178.83H661.388V173.2Z" fill="white"/>
<path d="M629.468 183.61H612.988V189.24H629.468V183.61Z" fill="white"/>
<path d="M652.688 183.61H636.208V189.24H652.688V183.61Z" fill="#EBA154"/>
<path d="M682.258 183.61H658.588V189.24H682.258V183.61Z" fill="#EBA154"/>
<path d="M682.269 173.2H667.889V178.83H682.269V173.2Z" fill="#EBA154"/>
<path d="M682.258 162.79H650.778V168.42H682.258V162.79Z" fill="#EBA154"/>
<path d="M558.479 57.9302H497.889C489.604 57.9302 482.889 64.6459 482.889 72.9302V220.95C482.889 229.234 489.604 235.95 497.889 235.95H558.479C566.763 235.95 573.479 229.234 573.479 220.95V72.9302C573.479 64.6459 566.763 57.9302 558.479 57.9302Z" fill="#49496B"/>
<path d="M561.229 95.79H493.208V103.01H561.229V95.79Z" fill="white"/>
<path d="M538.229 111.79H493.208V119.01H538.229V111.79Z" fill="white"/>
<path d="M561.228 111.79H544.918V119.01H561.228V111.79Z" fill="#EBA154"/>
<path d="M561.229 127.78H519.079V135H561.229V127.78Z" fill="#EBA154"/>
<path d="M512.948 127.78H493.208V135H512.948V127.78Z" fill="white"/>
<path d="M529.159 143.78H493.208V151H529.159V143.78Z" fill="white"/>
<path d="M561.229 143.78H534.699V151H561.229V143.78Z" fill="#EBA154"/>
<path d="M561.229 159.78H512.949V167H561.229V159.78Z" fill="#EBA154"/>
<path d="M507.799 159.78H493.208V167H507.799V159.78Z" fill="white"/>
<path d="M522.398 175.77H493.208V182.99H522.398V175.77Z" fill="white"/>
<path d="M561.229 175.77H527.219V182.99H561.229V175.77Z" fill="#EBA154"/>
<path d="M559.218 218.4V220.4L551.778 223.27V221.27L556.978 219.38L551.778 217.56V215.56L559.218 218.4Z" fill="#EBA154"/>
<path d="M538.058 215.56V217.56L532.848 219.47L538.058 221.36V223.36L530.608 220.53V218.53L538.058 215.56Z" fill="#EBA154"/>
<path d="M546.859 210.09H549.189L543.659 225.87H541.329L546.859 210.09Z" fill="#EBA154"/>
<path d="M525.038 79.48V82.14L515.278 85.85V83.29L522.108 80.81L515.278 78.31V75.77L525.038 79.48Z" fill="#EBA154"/>
<path d="M507.098 75.77V78.31L500.268 80.81L507.098 83.29V85.85L497.338 82.14V79.48L507.098 75.77Z" fill="#EBA154"/>
<path d="M492.896 30.099H497.246V43H492.896V38.2451H488.879V43H484.529V30.099H488.879V34.6696H492.896V30.099ZM502.143 43V33.4717H498.365V30.099H510.27V33.4717H506.492V43H502.143ZM526.881 43H522.919L522.882 37.1208L520.081 41.8389H518.164L515.363 37.3236V43H511.4V30.099H514.976L519.178 36.9734L523.269 30.099H526.844L526.881 43ZM528.984 43V30.099H533.334V39.6273H539.158V43H528.984Z" fill="#8A27FA"/>
<path d="M63.6985 240.31C61.8355 238.475 59.6662 236.979 57.2885 235.89L57.1585 235.83C54.3036 234.534 51.2118 233.84 48.0767 233.794C44.9416 233.748 41.8306 234.349 38.9385 235.56L38.4785 235.76C34.4896 237.54 31.0975 240.431 28.7075 244.087C26.3175 247.744 25.0306 252.011 25.0005 256.379C24.9705 260.747 26.1986 265.031 28.5381 268.72C30.8776 272.409 34.2297 275.346 38.1937 277.181C42.1578 279.016 46.5662 279.67 50.8925 279.067C55.2187 278.464 59.2798 276.628 62.5905 273.778C65.9013 270.929 68.3217 267.186 69.5626 262.998C70.8036 258.81 70.8126 254.353 69.5885 250.16C69.2989 249.171 68.9448 248.203 68.5285 247.26C67.3718 244.659 65.7329 242.301 63.6985 240.31ZM54.1785 270.94C51.15 272.294 47.7716 272.658 44.5239 271.981C41.2763 271.304 38.3249 269.621 36.0896 267.169C33.8543 264.718 32.449 261.624 32.0736 258.328C31.6981 255.032 32.3717 251.701 33.9985 248.81L34.0485 248.71C35.7039 245.789 38.2519 243.476 41.3185 242.11C41.9111 241.85 42.5189 241.626 43.1385 241.44L43.3285 241.38C46.4223 240.469 49.7217 240.532 52.7785 241.56C55.3591 242.431 57.6729 243.949 59.4985 245.97C60.6035 247.192 61.505 248.583 62.1685 250.09C62.5942 251.029 62.9291 252.007 63.1685 253.01C63.9752 256.577 63.5201 260.314 61.8808 263.583C60.2416 266.853 57.5196 269.453 54.1785 270.94Z" fill="#64648E"/>
<path d="M57.2883 235.89C62.2893 238.192 66.2837 242.233 68.5283 247.26C68.9446 248.203 69.2987 249.171 69.5883 250.16L63.1383 253.02C62.8989 252.017 62.564 251.039 62.1383 250.1C61.4748 248.593 60.5733 247.202 59.4683 245.98C57.6522 243.96 55.3491 242.438 52.7783 241.56L57.1983 235.83" fill="#EBA154"/>
<path d="M52.7785 241.56C49.7339 240.54 46.4498 240.477 43.3685 241.38L43.1785 241.44L38.9385 235.56C41.8312 234.35 44.9425 233.75 48.0777 233.799C51.2128 233.847 54.3043 234.542 57.1585 235.84" fill="#B83D5D"/>
<path d="M49.5586 279.28V281.28" stroke="#FD783D" stroke-miterlimit="10"/>
<path d="M49.5586 285.1V313.81" stroke="#FD783D" stroke-miterlimit="10" stroke-dasharray="3.83 3.83"/>
<path d="M49.5586 315.72V317.72H51.5586" stroke="#FD783D" stroke-miterlimit="10"/>
<path d="M55.6787 317.72H111.239" stroke="#FD783D" stroke-miterlimit="10" stroke-dasharray="4.12 4.12"/>
<path d="M113.298 317.72H115.298V315.72" stroke="#FD783D" stroke-miterlimit="10"/>
<path d="M115.298 311.83V282.62" stroke="#FD783D" stroke-miterlimit="10" stroke-dasharray="3.89 3.89"/>
<path d="M115.298 280.67V278.67" stroke="#FD783D" stroke-miterlimit="10"/>
<path d="M264.159 46.8599H111.309C100.263 46.8599 91.3086 55.8142 91.3086 66.8599V256.78C91.3086 267.826 100.263 276.78 111.309 276.78H264.159C275.204 276.78 284.159 267.826 284.159 256.78V66.8599C284.159 55.8142 275.204 46.8599 264.159 46.8599Z" fill="#49496B"/>
<path d="M264.159 35.6602H111.309C100.263 35.6602 91.3086 44.6145 91.3086 55.6602V64.8402H284.159V55.6602C284.159 44.6145 275.204 35.6602 264.159 35.6602Z" fill="#64648E"/>
<path d="M261.838 260.96V262.85L254.898 265.49V263.67L259.758 261.91L254.898 260.13V258.32L261.838 260.96Z" fill="#EBA154"/>
<path d="M242.118 258.32V260.13L237.268 261.91L242.118 263.67V265.49L235.188 262.85V260.96L242.118 258.32Z" fill="#EBA154"/>
<path d="M245.173 267.311L250.325 252.606H252.494L247.343 267.311H245.173Z" fill="#EBA154"/>
<path d="M136.998 83.4399V85.7999L128.358 89.0899V86.8199L134.358 84.6199L128.358 82.4099V80.1499L136.998 83.4399Z" fill="#EBA154"/>
<path d="M121.099 80.1499V82.4099L115.099 84.6199L121.099 86.8199V89.0899L112.449 85.7999V83.4399L121.099 80.1499Z" fill="#EBA154"/>
<path d="M116.655 45.9018H118.8L115.63 55.5898H113.222L111.091 49.0297L108.89 55.5898H106.496L103.313 45.9018H105.638L107.825 52.7111L110.108 45.9018H112.184L114.399 52.7665L116.655 45.9018ZM122.28 53.7906H127.553V55.5898H120.051V45.9018H127.373V47.701H122.28V49.8047H126.778V51.5486H122.28V53.7906ZM136.45 50.5521C137.53 50.8981 138.222 51.7285 138.222 52.9464C138.222 54.621 136.893 55.5898 134.347 55.5898H129.337V45.9018H134.07C136.492 45.9018 137.738 46.9122 137.738 48.4207C137.738 49.3895 137.239 50.1369 136.45 50.5521ZM133.793 47.5903H131.565V49.8739H133.793C134.886 49.8739 135.482 49.4864 135.482 48.7252C135.482 47.964 134.886 47.5903 133.793 47.5903ZM134.181 53.9014C135.343 53.9014 135.966 53.5415 135.966 52.7111C135.966 51.8946 135.343 51.507 134.181 51.507H131.565V53.9014H134.181ZM143.839 55.5898V45.9018H148.24C151.409 45.9018 153.582 47.8118 153.582 50.7458C153.582 53.6799 151.409 55.5898 148.24 55.5898H143.839ZM146.081 53.7491H148.129C150.053 53.7491 151.312 52.6004 151.312 50.7458C151.312 48.8913 150.053 47.7426 148.129 47.7426H146.081V53.7491ZM157.501 53.7906H162.774V55.5898H155.273V45.9018H162.594V47.701H157.501V49.8047H161.999V51.5486H157.501V53.7906ZM171.509 45.9018H173.738L169.544 55.5898H167.33L163.15 45.9018H165.572L168.52 52.8218L171.509 45.9018ZM176.775 53.7906H182.048V55.5898H174.546V45.9018H181.868V47.701H176.775V49.8047H181.273V51.5486H176.775V53.7906ZM183.832 55.5898V45.9018H186.074V53.763H190.932V55.5898H183.832ZM196.714 55.7559C193.655 55.7559 191.413 53.6246 191.413 50.7458C191.413 47.8671 193.655 45.7358 196.714 45.7358C199.759 45.7358 202.015 47.8533 202.015 50.7458C202.015 53.6384 199.759 55.7559 196.714 55.7559ZM196.714 53.846C198.444 53.846 199.745 52.5866 199.745 50.7458C199.745 48.9051 198.444 47.6457 196.714 47.6457C194.984 47.6457 193.683 48.9051 193.683 50.7458C193.683 52.5866 194.984 53.846 196.714 53.846ZM207.893 45.9018C210.481 45.9018 212.1 47.2443 212.1 49.4172C212.1 51.5762 210.481 52.9187 207.893 52.9187H205.942V55.5898H203.7V45.9018H207.893ZM207.769 51.0918C209.139 51.0918 209.831 50.469 209.831 49.4172C209.831 48.3515 209.139 47.7287 207.769 47.7287H205.942V51.0918H207.769ZM213.701 55.5898V45.9018H215.943V55.5898H213.701ZM224.913 45.9018H227.128V55.5898H225.287L220.457 49.7078V55.5898H218.242V45.9018H220.097L224.913 51.7838V45.9018ZM235.966 53.4308V50.5936H238.014V54.5242C236.949 55.3269 235.482 55.7559 234.098 55.7559C231.053 55.7559 228.811 53.6661 228.811 50.7458C228.811 47.8256 231.053 45.7358 234.139 45.7358C235.842 45.7358 237.253 46.317 238.194 47.4104L236.755 48.739C236.049 47.9917 235.233 47.6457 234.25 47.6457C232.368 47.6457 231.081 48.9051 231.081 50.7458C231.081 52.5589 232.368 53.846 234.222 53.846C234.831 53.846 235.399 53.7353 235.966 53.4308Z" fill="white"/>
<path d="M181.338 103.11H124.648V113.49H181.338V103.11Z" fill="#54B3CD"/>
<path d="M217.658 103.11H189.318V113.49H217.658V103.11Z" fill="#EBA154"/>
<path d="M263.228 103.11H224.188V113.49H263.228V103.11Z" fill="white"/>
<path d="M151.108 121.65H124.648V132.03H151.108V121.65Z" fill="#54B3CD"/>
<path d="M203.488 121.65H158.298V132.03H203.488V121.65Z" fill="#EBA154"/>
<path d="M263.228 121.65H210.858V132.03H263.228V121.65Z" fill="white"/>
<path d="M159.478 140.18H124.648V150.56H159.478V140.18Z" fill="#54B3CD"/>
<path d="M230.649 140.18H165.139V150.56H230.649V140.18Z" fill="#EBA154"/>
<path d="M263.228 140.18H237.668V150.56H263.228V140.18Z" fill="white"/>
<path d="M168.558 158.72H124.648V169.1H168.558V158.72Z" fill="#54B3CD"/>
<path d="M217.659 158.72H175.039V169.1H217.659V158.72Z" fill="#EBA154"/>
<path d="M263.228 158.72H224.188V169.1H263.228V158.72Z" fill="white"/>
<path d="M143.908 177.25H124.648V187.63H143.908V177.25Z" fill="#54B3CD"/>
<path d="M188.538 177.25H150.378V187.63H188.538V177.25Z" fill="#EBA154"/>
<path d="M263.229 177.25H194.479V187.63H263.229V177.25Z" fill="white"/>
<path d="M179.718 195.78H124.648V206.16H179.718V195.78Z" fill="#54B3CD"/>
<path d="M203.489 195.78H186.559V206.16H203.489V195.78Z" fill="#EBA154"/>
<path d="M263.228 195.78H210.858V206.16H263.228V195.78Z" fill="white"/>
<path d="M196.358 214.32H124.648V224.7H196.358V214.32Z" fill="#54B3CD"/>
<path d="M231.738 214.32H202.398V224.7H231.738V214.32Z" fill="#EBA154"/>
<path d="M263.228 214.32H237.668V224.7H263.228V214.32Z" fill="white"/>
<path d="M146.608 232.85H124.648V243.23H146.608V232.85Z" fill="#54B3CD"/>
<path d="M179.719 232.85H152.989V243.23H179.719V232.85Z" fill="#EBA154"/>
<path d="M263.229 232.85H186.559V243.23H263.229V232.85Z" fill="white"/>
<path d="M272.919 103.11H270.809V243.23H272.919V103.11Z" fill="white"/>
<path d="M106.818 113.49C109.685 113.49 112.008 111.166 112.008 108.3C112.008 105.434 109.685 103.11 106.818 103.11C103.952 103.11 101.628 105.434 101.628 108.3C101.628 111.166 103.952 113.49 106.818 113.49Z" fill="white"/>
<path d="M106.818 132.03C109.685 132.03 112.008 129.706 112.008 126.84C112.008 123.974 109.685 121.65 106.818 121.65C103.952 121.65 101.628 123.974 101.628 126.84C101.628 129.706 103.952 132.03 106.818 132.03Z" fill="white"/>
<path d="M106.818 150.56C109.685 150.56 112.008 148.237 112.008 145.37C112.008 142.504 109.685 140.18 106.818 140.18C103.952 140.18 101.628 142.504 101.628 145.37C101.628 148.237 103.952 150.56 106.818 150.56Z" fill="white"/>
<path d="M106.818 169.1C109.685 169.1 112.008 166.777 112.008 163.91C112.008 161.044 109.685 158.72 106.818 158.72C103.952 158.72 101.628 161.044 101.628 163.91C101.628 166.777 103.952 169.1 106.818 169.1Z" fill="white"/>
<path d="M106.818 187.63C109.685 187.63 112.008 185.306 112.008 182.44C112.008 179.574 109.685 177.25 106.818 177.25C103.952 177.25 101.628 179.574 101.628 182.44C101.628 185.306 103.952 187.63 106.818 187.63Z" fill="white"/>
<path d="M106.818 206.16C109.685 206.16 112.008 203.836 112.008 200.97C112.008 198.103 109.685 195.78 106.818 195.78C103.952 195.78 101.628 198.103 101.628 200.97C101.628 203.836 103.952 206.16 106.818 206.16Z" fill="white"/>
<path d="M106.818 224.7C109.685 224.7 112.008 222.376 112.008 219.51C112.008 216.643 109.685 214.32 106.818 214.32C103.952 214.32 101.628 216.643 101.628 219.51C101.628 222.376 103.952 224.7 106.818 224.7Z" fill="white"/>
<path d="M106.818 243.23C109.685 243.23 112.008 240.906 112.008 238.04C112.008 235.174 109.685 232.85 106.818 232.85C103.952 232.85 101.628 235.174 101.628 238.04C101.628 240.906 103.952 243.23 106.818 243.23Z" fill="white"/>
<path d="M275.569 51.8601C275.569 52.9083 275.258 53.933 274.676 54.8046C274.093 55.6762 273.265 56.3555 272.297 56.7566C271.329 57.1578 270.263 57.2627 269.235 57.0582C268.207 56.8537 267.262 56.349 266.521 55.6077C265.78 54.8665 265.275 53.9221 265.071 52.894C264.866 51.8659 264.971 50.8003 265.372 49.8318C265.773 48.8634 266.453 48.0357 267.324 47.4533C268.196 46.8709 269.22 46.5601 270.269 46.5601C270.965 46.5588 271.655 46.6949 272.299 46.9608C272.942 47.2267 273.527 47.617 274.019 48.1095C274.512 48.6019 274.902 49.1867 275.168 49.8303C275.434 50.4739 275.57 51.1637 275.569 51.8601Z" fill="#B83D5D"/>
<path d="M262.478 51.7499C262.48 52.8065 262.169 53.8399 261.583 54.7194C260.998 55.5989 260.164 56.2849 259.189 56.6906C258.213 57.0963 257.139 57.2035 256.103 56.9985C255.066 56.7936 254.114 56.2858 253.366 55.5394C252.618 54.793 252.109 53.8415 251.902 52.8054C251.695 51.7693 251.8 50.6951 252.204 49.7187C252.608 48.7424 253.292 47.9078 254.171 47.3206C255.049 46.7334 256.082 46.4199 257.138 46.4199C257.839 46.4186 258.533 46.5555 259.181 46.8228C259.829 47.09 260.418 47.4824 260.914 47.9775C261.41 48.4726 261.803 49.0606 262.072 49.7079C262.34 50.3552 262.478 51.0491 262.478 51.7499Z" fill="white"/>
<path d="M328.498 73.8901H309.818V79.1201H328.498V73.8901Z" fill="#47547C"/>
<path d="M366.968 64.5698H309.818V69.7998H366.968V64.5698Z" fill="#64648E"/>
<path d="M342.838 80.1201V82.1201" stroke="#FD783D" stroke-miterlimit="10"/>
<path d="M342.838 85.5V97.32" stroke="#FD783D" stroke-miterlimit="10" stroke-dasharray="3.38 3.38"/>
<path d="M342.838 99V101H344.838" stroke="#FD783D" stroke-miterlimit="10"/>
<path d="M348.648 101H407.688" stroke="#FD783D" stroke-miterlimit="10" stroke-dasharray="3.81 3.81"/>
<path d="M409.599 101H411.599V99" stroke="#FD783D" stroke-miterlimit="10"/>
<path d="M411.599 94.9499V88.8599" stroke="#FD783D" stroke-miterlimit="10" stroke-dasharray="4.06 4.06"/>
<path d="M411.599 86.8301V84.8301" stroke="#FD783D" stroke-miterlimit="10"/>
<path d="M317.541 50.6147C313.394 50.6147 310.353 47.8318 310.353 43.8693C310.353 39.9069 313.394 37.1239 317.541 37.1239C320.065 37.1239 322.056 38.0454 323.328 39.7041L320.581 42.1553C319.826 41.197 318.923 40.6441 317.762 40.6441C315.956 40.6441 314.739 41.8973 314.739 43.8693C314.739 45.8413 315.956 47.0946 317.762 47.0946C318.923 47.0946 319.826 46.5417 320.581 45.5833L323.328 48.0345C322.056 49.6932 320.065 50.6147 317.541 50.6147ZM329.214 50.6147C327.057 50.6147 324.883 50.0802 323.592 49.2877L324.993 46.1178C326.21 46.8366 327.831 47.2973 329.25 47.2973C330.485 47.2973 330.928 47.0393 330.928 46.597C330.928 44.9751 323.795 46.2837 323.795 41.4734C323.795 39.0775 325.804 37.1239 329.803 37.1239C331.536 37.1239 333.324 37.4925 334.669 38.2482L333.36 41.3997C332.089 40.7547 330.891 40.4413 329.767 40.4413C328.495 40.4413 328.089 40.8099 328.089 41.2523C328.089 42.8004 335.222 41.5103 335.222 46.2652C335.222 48.6243 333.213 50.6147 329.214 50.6147ZM341.326 50.6147C339.17 50.6147 336.995 50.0802 335.705 49.2877L337.106 46.1178C338.322 46.8366 339.944 47.2973 341.363 47.2973C342.598 47.2973 343.04 47.0393 343.04 46.597C343.04 44.9751 335.908 46.2837 335.908 41.4734C335.908 39.0775 337.917 37.1239 341.916 37.1239C343.648 37.1239 345.436 37.4925 346.782 38.2482L345.473 41.3997C344.201 40.7547 343.003 40.4413 341.879 40.4413C340.608 40.4413 340.202 40.8099 340.202 41.2523C340.202 42.8004 347.334 41.5103 347.334 46.2652C347.334 48.6243 345.326 50.6147 341.326 50.6147Z" fill="#8A27FA"/>
<path d="M426.778 63.5598C426.574 62.8783 426.327 62.2103 426.038 61.5598C424.484 58.0714 421.711 55.2697 418.238 53.6798C418.209 53.6706 418.178 53.6706 418.148 53.6798C416.173 52.7701 414.029 52.2825 411.855 52.2481C409.68 52.2136 407.522 52.6331 405.518 53.4798L405.198 53.6198C401.932 55.0786 399.257 57.6036 397.613 60.7812C395.969 63.9587 395.452 67.6005 396.148 71.1098C396.837 74.7163 398.762 77.9698 401.591 80.3099C404.42 82.6501 407.977 83.9304 411.648 83.9304C415.32 83.9304 418.877 82.6501 421.706 80.3099C424.535 77.9698 426.46 74.7163 427.148 71.1098C427.645 68.6008 427.518 66.0083 426.778 63.5598ZM416.088 77.9698C413.435 79.1389 410.427 79.2127 407.719 78.1752C405.011 77.1377 402.822 75.0729 401.628 72.4298C401.429 71.9813 401.259 71.5203 401.118 71.0498C400.714 69.6491 400.594 68.1815 400.766 66.7337C400.938 65.2859 401.397 63.8871 402.118 62.6198V62.5498C403.266 60.5202 405.037 58.9143 407.168 57.9698C407.577 57.787 407.998 57.6333 408.428 57.5098C408.471 57.4996 408.516 57.4996 408.558 57.5098C410.696 56.8782 412.976 56.9201 415.088 57.6298C416.883 58.2058 418.499 59.2358 419.778 60.6198C420.543 61.465 421.168 62.4272 421.628 63.4698C421.917 64.1137 422.145 64.7833 422.308 65.4698C422.862 67.9399 422.546 70.5251 421.415 72.7895C420.283 75.0538 418.406 76.8588 416.098 77.8998L416.088 77.9698Z" fill="#64648E"/>
<path d="M427.068 71.0098H422.068C422.603 69.2195 422.665 67.3211 422.248 65.4998C422.085 64.8133 421.857 64.1437 421.568 63.4998C421.129 62.4506 420.525 61.4783 419.778 60.6198C418.504 59.2087 416.884 58.1541 415.078 57.5598C412.966 56.8501 410.686 56.8082 408.548 57.4398C408.506 57.4296 408.461 57.4296 408.418 57.4398C407.988 57.5632 407.567 57.7169 407.158 57.8998C405.007 58.8614 403.227 60.4971 402.088 62.5598V62.6298C401.367 63.897 400.907 65.2958 400.736 66.7436C400.564 68.1915 400.684 69.659 401.088 71.0598H396.088C395.392 67.5454 395.911 63.8987 397.561 60.7185C399.211 57.5384 401.894 55.0139 405.168 53.5598L405.488 53.4198C407.492 52.5731 409.65 52.1536 411.824 52.188C413.999 52.2224 416.143 52.7101 418.118 53.6198C418.148 53.6106 418.179 53.6106 418.208 53.6198C421.681 55.2096 424.454 58.0114 426.008 61.4998C426.297 62.1502 426.544 62.8182 426.748 63.4998C427.464 65.9398 427.574 68.5177 427.068 71.0098Z" fill="#B83D5D"/>
<path d="M366.979 73.8901H332.249V79.1201H366.979V73.8901Z" fill="#64648E"/>
<path d="M48.6027 45.7447C48.6027 47.8575 47.9425 48.8347 46.4635 49.2837C47.9425 49.7326 48.6027 50.7098 48.6027 52.8226V55.3316C48.6027 56.4936 49.2366 57.1539 50.4779 57.1539H50.742V61.6436H48.7876C44.6941 61.6436 42.6341 59.5836 42.6341 56.0182V52.6906C42.6341 51.8983 42.1587 51.5285 41.4985 51.5285H40.6269V47.0388H41.4985C42.1587 47.0388 42.6341 46.6691 42.6341 45.8768V42.5491C42.6341 38.9838 44.6941 36.9238 48.7876 36.9238H50.742V41.4135H50.4779C49.2366 41.4135 48.6027 42.0737 48.6027 43.2358V45.7447ZM68.4441 47.0388H69.3156V51.5285H68.4441C67.7838 51.5285 67.3085 51.8983 67.3085 52.6906V56.0182C67.3085 59.5836 65.2485 61.6436 61.1549 61.6436H59.2006V57.1539H59.4647C60.706 57.1539 61.3398 56.4936 61.3398 55.3316V52.8226C61.3398 50.7098 62 49.7326 63.479 49.2837C62 48.8347 61.3398 47.8575 61.3398 45.7447V43.2358C61.3398 42.0737 60.706 41.4135 59.4647 41.4135H59.2006V36.9238H61.1549C65.2485 36.9238 67.3085 38.9838 67.3085 42.5491V45.8768C67.3085 46.6691 67.7838 47.0388 68.4441 47.0388Z" fill="#323247"/>
<path d="M59.8286 87.5098H39.2886V97.3098H59.8286V87.5098Z" fill="white"/>
<path d="M59.8286 104.63H39.2886V114.43H59.8286V104.63Z" fill="white"/>
<path d="M59.8286 121.76H39.2886V131.56H59.8286V121.76Z" fill="#EBA154"/>
<path d="M59.8286 138.88H39.2886V148.68H59.8286V138.88Z" fill="#EBA154"/>
<path d="M59.8286 156H39.2886V165.8H59.8286V156Z" fill="#EBA154"/>
<path d="M59.8286 173.13H39.2886V182.93H59.8286V173.13Z" fill="#EBA154"/>
<path d="M59.8286 190.25H39.2886V200.05H59.8286V190.25Z" fill="#EBA154"/>
<path d="M640.268 280.25C640.268 280.18 640.268 280.11 640.268 280.04C640.268 279.97 640.268 279.91 640.268 279.85C641.331 279.366 642.358 278.805 643.338 278.17C644.479 277.398 645.553 276.532 646.548 275.58L646.328 274.7C646.083 273.716 645.769 272.75 645.388 271.81C645.188 271.35 644.958 270.89 644.738 270.44C644.533 269.977 644.289 269.532 644.008 269.11L643.548 268.34C642.168 268.364 640.793 268.507 639.438 268.77C638.3 269.014 637.183 269.349 636.098 269.77L635.808 269.48C636.23 268.392 636.564 267.271 636.808 266.13C637.079 264.78 637.226 263.407 637.248 262.03L636.478 261.57C636.057 261.288 635.612 261.044 635.148 260.84C634.688 260.62 634.238 260.39 633.768 260.19C632.829 259.808 631.863 259.494 630.878 259.25L630.008 259.02C629.053 260.019 628.184 261.096 627.408 262.24C626.775 263.22 626.216 264.246 625.738 265.31H625.538H625.338C624.868 264.242 624.31 263.215 623.668 262.24C622.896 261.096 622.03 260.019 621.078 259.02L620.208 259.25C619.22 259.494 618.251 259.808 617.308 260.19C616.848 260.39 616.398 260.62 615.928 260.84C615.465 261.046 615.021 261.29 614.598 261.57L613.828 262.03C613.86 263.407 614.007 264.778 614.268 266.13C614.512 267.271 614.847 268.392 615.268 269.48L614.978 269.77C613.893 269.35 612.776 269.016 611.638 268.77C610.283 268.508 608.908 268.364 607.528 268.34L607.058 269.11C606.786 269.537 606.542 269.981 606.328 270.44C606.118 270.89 605.888 271.35 605.688 271.81C605.308 272.75 604.994 273.716 604.748 274.7L604.528 275.58C605.522 276.534 606.596 277.4 607.738 278.17C608.714 278.806 609.737 279.368 610.798 279.85C610.798 279.91 610.798 279.97 610.798 280.04C610.798 280.11 610.798 280.18 610.798 280.25C609.736 280.725 608.712 281.283 607.738 281.92C606.596 282.69 605.522 283.556 604.528 284.51L604.748 285.38C604.994 286.367 605.308 287.337 605.688 288.28C605.888 288.74 606.118 289.19 606.328 289.65C606.544 290.108 606.788 290.552 607.058 290.98L607.528 291.75C608.908 291.726 610.283 291.582 611.638 291.32C612.776 291.074 613.893 290.74 614.978 290.32C615.07 290.422 615.167 290.518 615.268 290.61C614.848 291.696 614.514 292.812 614.268 293.95C614.008 295.302 613.861 296.674 613.828 298.05L614.598 298.53C615.027 298.795 615.472 299.036 615.928 299.25C616.398 299.47 616.848 299.7 617.308 299.9C618.251 300.282 619.22 300.596 620.208 300.84L621.078 301.06C622.03 300.064 622.896 298.991 623.668 297.85C624.306 296.873 624.864 295.846 625.338 294.78H625.538H625.738C626.221 295.842 626.779 296.868 627.408 297.85C628.184 298.991 629.054 300.064 630.008 301.06L630.878 300.84C631.863 300.596 632.829 300.282 633.768 299.9C634.238 299.7 634.688 299.47 635.148 299.25C635.606 299.038 636.05 298.798 636.478 298.53L637.248 298.05C637.225 296.673 637.078 295.301 636.808 293.95C636.563 292.812 636.228 291.695 635.808 290.61C635.908 290.52 635.998 290.42 636.098 290.32C637.183 290.741 638.3 291.076 639.438 291.32C640.793 291.583 642.168 291.726 643.548 291.75L644.008 290.98C644.287 290.557 644.531 290.112 644.738 289.65C644.958 289.19 645.188 288.74 645.388 288.28C645.769 287.337 646.083 286.367 646.328 285.38L646.548 284.51C645.553 283.558 644.479 282.692 643.338 281.92C642.36 281.285 641.333 280.727 640.268 280.25ZM625.518 287.1C624.122 287.1 622.757 286.686 621.596 285.91C620.435 285.134 619.53 284.032 618.996 282.742C618.461 281.452 618.322 280.032 618.594 278.663C618.866 277.293 619.539 276.035 620.526 275.048C621.513 274.06 622.771 273.388 624.141 273.116C625.51 272.843 626.93 272.983 628.22 273.517C629.51 274.052 630.613 274.957 631.388 276.118C632.164 277.279 632.578 278.644 632.578 280.04C632.578 281.912 631.835 283.708 630.51 285.032C629.186 286.356 627.391 287.1 625.518 287.1Z" fill="#323247"/>
<path d="M575.419 254.04H566.099V296.01H575.419V254.04Z" fill="#B83D5D"/>
<path d="M562.348 272.53H552.358V296.01H562.348V272.53Z" fill="#64648E"/>
<path d="M548.509 280.04H538.519V296H548.509V280.04Z" fill="#FD783D"/>
<path d="M536.749 289.32H534.749" stroke="#FD783D" stroke-miterlimit="10"/>
<path d="M529.679 289.32H522.079" stroke="#FD783D" stroke-miterlimit="10" stroke-dasharray="5.07 5.07"/>
<path d="M519.539 289.32H517.539V291.32" stroke="#FD783D" stroke-miterlimit="10"/>
<path d="M517.539 295.06V323.12" stroke="#FD783D" stroke-miterlimit="10" stroke-dasharray="3.74 3.74"/>
<path d="M517.539 324.99V326.99H519.539" stroke="#FD783D" stroke-miterlimit="10"/>
<path d="M522.938 326.99H534.818" stroke="#FD783D" stroke-miterlimit="10" stroke-dasharray="3.4 3.4"/>
<path d="M536.519 326.99H538.519" stroke="#FD783D" stroke-miterlimit="10"/>
<path d="M568.109 325.12H541.679V329.84H568.109V325.12Z" fill="white"/>
<path d="M559.959 333.86H541.679V338.58H559.959V333.86Z" fill="white"/>
<path d="M564.819 342.6H541.679V347.32H564.819V342.6Z" fill="white"/>
<path d="M575.008 342.6H569.608V347.32H575.008V342.6Z" fill="#EBA154"/>
<path d="M599.828 342.6H579.958V347.32H599.828V342.6Z" fill="#EBA154"/>
<path d="M599.828 333.86H565.818V338.58H599.828V333.86Z" fill="#EBA154"/>
<path d="M599.839 325.12H573.409V329.84H599.839V325.12Z" fill="#EBA154"/>
<path d="M690.469 277.48H673.059V285.79H690.469V277.48Z" fill="#B83D5D"/>
<path d="M690.469 292H673.059V300.31H690.469V292Z" fill="#B83D5D"/>
<path d="M690.469 306.52H673.059V314.83H690.469V306.52Z" fill="#B83D5D"/>
<path d="M690.469 321.04H673.059V329.35H690.469V321.04Z" fill="#B83D5D"/>
<path d="M690.469 335.56H673.059V343.87H690.469V335.56Z" fill="white"/>
<path d="M690.469 350.08H673.059V358.39H690.469V350.08Z" fill="white"/>
<path d="M690.469 364.6H673.059V372.91H690.469V364.6Z" fill="white"/>
<path d="M614.548 396.72C608.77 397.257 602.973 395.895 598.038 392.84C579.668 381.47 575.828 349.41 575.568 347C575.728 347.74 577.568 351.66 596.638 364.51C598.218 365.577 599.675 366.663 601.008 367.77L601.078 367.82C617.718 381.56 614.548 396.72 614.548 396.72Z" fill="#0C8068"/>
<path d="M575.559 346.86C575.559 346.86 592.709 388.96 611.739 393.39" stroke="#0A6D53" stroke-miterlimit="10"/>
<path opacity="0.5" d="M614.549 396.72C608.77 397.257 602.973 395.895 598.039 392.84C601.689 384.19 601.039 367.77 601.039 367.77L601.109 367.82C617.719 381.56 614.549 396.72 614.549 396.72Z" fill="#0A6D53"/>
<path d="M663.309 349.35C663.229 349.79 662.979 351.35 662.459 353.64C659.749 365.77 649.969 398.43 623.649 395.16C623.409 392.818 623.561 390.452 624.099 388.16C625.399 382 629.579 372.82 642.309 365.16C661.199 353.71 663.109 350.04 663.309 349.35Z" fill="#0C8068"/>
<path d="M662.459 351.94C662.459 351.94 648.959 386.94 625.519 394.07" stroke="#0A6D53" stroke-miterlimit="10"/>
<path opacity="0.5" d="M662.459 353.64C659.749 365.77 649.969 398.43 623.649 395.16C623.409 392.818 623.561 390.452 624.099 388.16C646.019 389.35 662.459 353.64 662.459 353.64Z" fill="#0A6D53"/>
<path d="M622.239 396.34C621.589 397.47 611.979 393.47 607.649 381.92C605.049 374.98 604.359 365.3 608.649 352.38C619.929 318.44 615.279 312.05 615.139 311.87C622.111 315.767 627.796 321.612 631.499 328.69V328.74C638.489 341.81 641.199 363.35 622.239 396.34Z" fill="#159A7A"/>
<path d="M615.139 311.86C615.139 311.86 629.859 330.43 624.249 365.76C618.639 401.09 622.249 396.34 622.249 396.34" stroke="#0C8068" stroke-miterlimit="10"/>
<path opacity="0.5" d="M622.238 396.34C621.588 397.47 611.978 393.47 607.648 381.92C631.878 388.8 631.498 328.69 631.498 328.69V328.74C638.488 341.81 641.198 363.35 622.238 396.34Z" fill="#0C8068"/>
<path d="M575.549 346.86V346.98C575.544 346.94 575.544 346.9 575.549 346.86Z" fill="#0C8068"/>
<path d="M640.869 395.83V422.96C640.869 426.771 639.354 430.426 636.66 433.121C633.965 435.816 630.31 437.33 626.498 437.33H613.778C611.314 437.332 608.89 436.699 606.741 435.492C604.592 434.286 602.79 432.546 601.508 430.44C600.136 428.187 599.412 425.598 599.418 422.96V395.83H640.869Z" fill="#EBA154"/>
<path d="M642.368 392.31H597.858C597.273 392.31 596.798 392.785 596.798 393.37V394.77C596.798 395.355 597.273 395.83 597.858 395.83H642.368C642.954 395.83 643.428 395.355 643.428 394.77V393.37C643.428 392.785 642.954 392.31 642.368 392.31Z" fill="#EBA154"/>
<path d="M640.868 395.83V422.96C640.868 426.771 639.354 430.426 636.659 433.121C633.965 435.816 630.309 437.33 626.498 437.33H613.778C611.314 437.332 608.89 436.699 606.741 435.492C604.592 434.286 602.79 432.546 601.508 430.44C631.898 439.98 638.508 417.63 637.328 408.77C636.148 399.91 625.198 395.83 625.198 395.83H640.868Z" fill="#DC831E"/>
</svg>
